<?xml version="1.0" encoding="utf-8"?>
<!-- Generator: Adobe Illustrator 28.0.0, SVG Export Plug-In . SVG Version: 6.00 Build 0)  -->
<svg version="1.1" id="Layer_1" xmlns="http://www.w3.org/2000/svg" xmlns:xlink="http://www.w3.org/1999/xlink" x="0px" y="0px"
	 viewBox="0 0 200 50" style="enable-background:new 0 0 200 50;" xml:space="preserve">
<g id="Eimdsy_00000043430646630233987870000003563234569879020177_">
	<g>
		<g>
			<path d="M23.06,15.29c0.77,0,1.53,0,2.3,0c0.32,0,0.33,0.01,0.41,0.33c0.83,3.26,1.66,6.51,2.5,9.77
				c0.36,1.41,0.72,2.82,1.08,4.23c0.03,0.12,0.08,0.23,0.12,0.34c0.05-0.12,0.12-0.24,0.16-0.37c0.21-0.86,0.42-1.72,0.63-2.58
				c0.82-3.39,1.63-6.77,2.45-10.16c0.1-0.4,0.19-0.81,0.28-1.22c0.09-0.36,0.09-0.36,0.45-0.36c1.37,0,2.75,0,4.12,0
				c0.34,0,0.34,0.01,0.43,0.37c0.66,2.73,1.32,5.46,1.98,8.19c0.46,1.92,0.92,3.84,1.38,5.76c0.02,0.08,0.05,0.17,0.08,0.25
				c0.02,0.04,0.04,0.08,0.06,0.12c0.03-0.04,0.06-0.08,0.07-0.13c0.12-0.45,0.25-0.9,0.36-1.35c1.09-4.27,2.17-8.53,3.26-12.8
				c0.1-0.4,0.1-0.41,0.51-0.41c0.57-0.01,1.15,0,1.72-0.01c0.83-0.02,1.67-0.04,2.5-0.06c0.12,0,0.24-0.01,0.37,0
				c0.16,0.01,0.21,0.08,0.16,0.24c-0.13,0.41-0.25,0.83-0.38,1.24c-1.32,4.24-2.64,8.47-3.96,12.71c-0.73,2.33-1.46,4.67-2.19,7
				c-0.03,0.08-0.07,0.16-0.08,0.25c-0.04,0.2-0.16,0.28-0.37,0.28c-0.49-0.01-0.97,0-1.46,0c-0.83,0-1.67,0-2.5,0
				c-0.37,0-0.38-0.01-0.46-0.34c-0.73-2.82-1.47-5.64-2.2-8.45c-0.42-1.61-0.84-3.22-1.25-4.83c-0.01-0.03-0.01-0.07-0.03-0.1
				c-0.03-0.04-0.06-0.08-0.09-0.12c-0.02,0.03-0.06,0.06-0.07,0.1c-0.1,0.37-0.2,0.73-0.3,1.1c-1.06,4.09-2.11,8.19-3.17,12.28
				c-0.02,0.08-0.06,0.16-0.07,0.25c-0.03,0.15-0.12,0.2-0.26,0.19c-0.07,0-0.14,0-0.21,0c-1.25,0-2.5,0-3.76,0
				c-0.43,0-0.44,0-0.57-0.42c-0.7-2.23-1.4-4.47-2.09-6.7c-0.65-2.09-1.3-4.17-1.95-6.26c-0.82-2.65-1.65-5.3-2.48-7.94
				c-0.03-0.08-0.07-0.16-0.07-0.25c0-0.05,0.06-0.13,0.11-0.13c0.12-0.02,0.24-0.01,0.36-0.01C21.64,15.29,22.35,15.29,23.06,15.29
				z"/>
			<path d="M160.08,21.71c0,4.89,0,9.77,0,14.66c0,0.07,0,0.14,0,0.21c-0.01,0.42-0.01,0.42-0.43,0.42c-1.44,0-2.89,0-4.33,0
				c-0.05,0-0.1,0-0.16,0c-0.29-0.01-0.3-0.01-0.3-0.29c-0.01-0.45,0-0.9,0-1.36c0-0.09,0.01-0.17,0-0.26
				c0-0.05-0.03-0.09-0.04-0.14c-0.04,0.03-0.1,0.05-0.12,0.09c-0.29,0.42-0.65,0.76-1.07,1.06c-1.07,0.77-2.27,1.18-3.59,1.22
				c-1.26,0.04-2.5-0.08-3.7-0.48c-2.52-0.84-4.22-2.55-5.23-4.97c-0.62-1.49-0.9-3.05-0.99-4.66c-0.04-0.8-0.03-1.6,0.02-2.39
				c0.13-2.13,0.62-4.15,1.77-5.97c1.19-1.91,2.89-3.11,5.06-3.66c1.07-0.27,2.16-0.4,3.25-0.3c1.62,0.14,3.06,0.74,4.26,1.86
				c0.09,0.08,0.17,0.17,0.26,0.25c0.02,0.01,0.1-0.02,0.1-0.03c0.01-0.14,0.01-0.28,0.01-0.42c0-3.17,0-6.33,0-9.5
				c0-0.71-0.08-0.62,0.6-0.62c1.36,0,2.71,0,4.07,0c0.12,0,0.24,0,0.37,0c0.13,0,0.18,0.07,0.19,0.2c0,0.14,0,0.28,0,0.42
				C160.08,11.94,160.08,16.83,160.08,21.71z M155.35,26.15c-0.05-0.6-0.08-1.21-0.17-1.81c-0.17-1.13-0.55-2.18-1.26-3.1
				c-1.65-2.15-4.76-2.18-6.45-0.52c-0.79,0.78-1.29,1.72-1.57,2.78c-0.35,1.32-0.41,2.66-0.24,4.02c0.12,1.03,0.39,2.01,0.91,2.91
				c1.48,2.6,4.53,2.92,6.49,1.47c0.82-0.61,1.35-1.44,1.71-2.38C155.18,28.44,155.33,27.31,155.35,26.15z"/>
			<path d="M66.54,37.01c-0.64,0-1.29,0-1.93,0c-0.36,0-0.36-0.01-0.45-0.35c-0.63-2.4-1.25-4.8-1.87-7.19
				c-0.52-2-1.04-3.99-1.56-5.99c-0.02-0.07-0.02-0.14-0.05-0.2c-0.02-0.04-0.07-0.07-0.1-0.11c-0.02,0.04-0.05,0.08-0.06,0.13
				c-0.17,0.62-0.34,1.24-0.5,1.86c-0.99,3.81-1.97,7.62-2.96,11.43c-0.02,0.07-0.06,0.13-0.06,0.2c-0.02,0.21-0.15,0.25-0.33,0.24
				c-0.05,0-0.1,0-0.16,0c-1.25,0-2.5,0-3.76,0c-0.43,0-0.44,0-0.57-0.42c-0.67-2.21-1.34-4.41-2.01-6.62
				c-0.16-0.53-0.33-1.06-0.49-1.59c-0.06-0.19-0.07-0.36-0.01-0.56c0.63-2.04,1.25-4.08,1.88-6.11c0.01-0.03,0.05-0.06,0.08-0.09
				c0.03,0.04,0.08,0.07,0.1,0.11c0.18,0.51,0.35,1.02,0.53,1.52c0.73,2.12,1.45,4.23,2.18,6.35c0.03,0.08,0.05,0.17,0.09,0.25
				c0.02,0.05,0.06,0.08,0.09,0.12c0.02-0.04,0.06-0.07,0.07-0.11c0.06-0.23,0.13-0.47,0.18-0.71c0.93-3.95,1.87-7.89,2.8-11.84
				c0.14-0.59,0.26-1.19,0.4-1.78c0.08-0.33,0.09-0.33,0.41-0.33c1.39,0,2.78,0,4.17,0c0.37,0,0.38,0,0.46,0.34
				c0.31,1.26,0.62,2.53,0.92,3.79c0.36,1.52,0.72,3.04,1.08,4.55c0.46,1.92,0.91,3.84,1.37,5.77c0.02,0.07,0.04,0.13,0.07,0.2
				c0.02,0.05,0.05,0.09,0.08,0.13c0.02-0.05,0.04-0.09,0.06-0.14c0.24-0.96,0.49-1.91,0.73-2.87c0.94-3.78,1.89-7.57,2.83-11.35
				c0.1-0.41,0.11-0.41,0.51-0.41c1.48,0,2.96,0,4.43,0c0.05,0,0.1,0,0.16,0c0.27,0.01,0.28,0.04,0.2,0.32
				c-0.12,0.4-0.24,0.8-0.37,1.19c-0.92,2.95-1.84,5.89-2.76,8.84c-1.02,3.28-2.04,6.56-3.06,9.83c-0.14,0.45-0.28,0.89-0.41,1.34
				c-0.06,0.19-0.16,0.27-0.38,0.27C67.89,37,67.22,37.01,66.54,37.01z"/>
			<path d="M91.68,37.01c-0.61,0-1.22,0-1.83,0c-0.48,0-0.48,0-0.61-0.48c-0.56-2.16-1.12-4.33-1.69-6.49
				c-0.57-2.18-1.13-4.36-1.69-6.54c-0.01-0.05-0.02-0.1-0.04-0.15c-0.03-0.06-0.07-0.12-0.11-0.17c-0.03,0.06-0.06,0.11-0.08,0.17
				c-0.38,1.42-0.75,2.85-1.13,4.27c-0.54,2.05-1.07,4.09-1.6,6.14c-0.26,0.99-0.53,1.97-0.77,2.97c-0.06,0.25-0.17,0.3-0.39,0.3
				c-1.32-0.01-2.64,0-3.96,0c-0.32,0-0.33,0-0.43-0.32c-0.39-1.28-0.78-2.55-1.18-3.83c-0.45-1.46-0.89-2.92-1.34-4.38
				c-0.06-0.21-0.11-0.42-0.03-0.65c0.63-2,1.24-4.01,1.85-6.01c0.02-0.07,0.07-0.14,0.1-0.2c0.04,0.07,0.1,0.14,0.13,0.21
				c0.52,1.51,1.04,3.02,1.55,4.53c0.38,1.1,0.75,2.2,1.13,3.3c0.03,0.08,0.05,0.17,0.08,0.25c0.01,0.03,0.06,0.07,0.07,0.07
				c0.04-0.02,0.08-0.05,0.09-0.08c0.17-0.71,0.34-1.41,0.51-2.12c0.79-3.34,1.58-6.68,2.37-10.02c0.17-0.73,0.32-1.46,0.49-2.18
				c0.08-0.35,0.09-0.35,0.45-0.35c1.36,0,2.71,0,4.07,0c0.46,0,0.42-0.1,0.55,0.43c0.36,1.46,0.71,2.93,1.06,4.4
				c0.54,2.22,1.08,4.45,1.61,6.67c0.23,0.96,0.45,1.92,0.68,2.88c0.03,0.12,0.07,0.23,0.11,0.35c0,0.01,0.08,0,0.09-0.01
				c0.04-0.11,0.07-0.23,0.1-0.35c0.78-3.09,1.57-6.18,2.35-9.27c0.4-1.58,0.8-3.16,1.2-4.74c0.09-0.35,0.09-0.35,0.45-0.35
				c1.5,0,2.99,0,4.49,0c0.33,0,0.36,0.04,0.26,0.37c-0.42,1.38-0.85,2.75-1.28,4.12c-1.36,4.35-2.71,8.71-4.07,13.06
				c-0.4,1.29-0.8,2.58-1.2,3.88c-0.14,0.45-0.17,0.37-0.51,0.37C92.97,37.01,92.33,37.01,91.68,37.01z"/>
			<path d="M119.81,29.69c0,2.19,0,4.38,0,6.57c0,0.12,0,0.24,0,0.37c-0.01,0.29-0.01,0.3-0.29,0.3c-1.23,0-2.47,0-3.7,0
				c-0.18,0-0.28-0.05-0.32-0.25c-0.08-0.5-0.19-0.99-0.29-1.48c-0.05-0.26-0.09-0.51-0.14-0.77c-0.03-0.15-0.11-0.17-0.21-0.08
				c-0.12,0.12-0.24,0.26-0.35,0.38c-1.2,1.32-2.67,2.15-4.44,2.43c-1.61,0.25-3.18,0.18-4.68-0.56c-1.42-0.69-2.38-1.79-2.9-3.27
				c-0.5-1.42-0.6-2.88-0.23-4.36c0.46-1.78,1.54-3.09,3.1-4.01c1.42-0.84,2.96-1.28,4.6-1.34c1.34-0.05,2.68-0.05,4.01-0.08
				c0.12,0,0.24,0,0.37,0c0.14,0.01,0.24-0.04,0.23-0.2c-0.01-0.57,0.04-1.14-0.1-1.71c-0.22-0.87-0.73-1.49-1.54-1.85
				c-0.79-0.35-1.63-0.45-2.49-0.36c-0.26,0.03-0.52,0.06-0.77,0.11c-1.1,0.22-1.81,0.9-2.28,1.88c-0.04,0.08-0.07,0.16-0.09,0.24
				c-0.05,0.2-0.17,0.23-0.36,0.18c-0.49-0.11-0.98-0.21-1.47-0.32c-0.74-0.17-1.49-0.34-2.23-0.51c-0.05-0.01-0.1-0.03-0.15-0.04
				c-0.17-0.03-0.23-0.13-0.18-0.3c0.26-1.02,0.67-1.97,1.32-2.81c1.16-1.5,2.71-2.36,4.53-2.77c1.23-0.28,2.48-0.31,3.73-0.14
				c0.62,0.08,1.24,0.17,1.84,0.33c2.41,0.64,4.05,2.13,4.87,4.5c0.38,1.11,0.59,2.25,0.6,3.42
				C119.82,25.37,119.8,27.53,119.81,29.69C119.8,29.69,119.81,29.69,119.81,29.69z M112.36,27.9c0,0.01,0,0.01,0,0.02
				c-0.61,0-1.22,0-1.82,0c-0.51,0.01-1,0.14-1.47,0.32c-0.7,0.28-1.19,0.78-1.38,1.52c-0.08,0.31-0.11,0.65-0.11,0.98
				c0.01,1.2,1.05,1.97,1.94,2c1.31,0.04,2.47-0.33,3.48-1.14c1.08-0.87,1.62-2.01,1.58-3.41c-0.01-0.28-0.01-0.29-0.3-0.29
				C113.65,27.9,113,27.9,112.36,27.9z"/>
			<path d="M18.28,29.55c0,2.24,0,4.49,0,6.73c0,0.14-0.01,0.28,0,0.42c0.01,0.18-0.09,0.25-0.26,0.23c-0.05,0-0.1,0-0.16,0
				c-1.15,0-2.3,0-3.44,0c-0.39,0-0.39,0-0.46-0.37c-0.14-0.68-0.27-1.36-0.41-2.04c-0.02-0.07-0.07-0.14-0.1-0.21
				c-0.07,0.05-0.15,0.09-0.2,0.15c-0.46,0.53-0.96,1.01-1.52,1.42c-1.11,0.8-2.36,1.23-3.72,1.37C7,37.34,6,37.3,5.02,37.03
				c-2.07-0.57-3.45-1.86-4.11-3.91c-0.45-1.4-0.52-2.83-0.13-4.25c0.5-1.79,1.62-3.08,3.22-3.98c1.37-0.77,2.85-1.18,4.42-1.25
				c1.35-0.06,2.71-0.06,4.06-0.08c0.12,0,0.24,0,0.37,0c0.12,0,0.21-0.04,0.2-0.17c-0.02-0.56,0.03-1.12-0.07-1.66
				c-0.21-1.12-0.94-1.8-2.01-2.1c-0.93-0.26-1.87-0.3-2.83-0.07c-1,0.24-1.7,0.83-2.17,1.72c-0.06,0.12-0.13,0.25-0.17,0.38
				c-0.07,0.2-0.18,0.26-0.39,0.21c-1.22-0.28-2.43-0.55-3.65-0.83c-0.05-0.01-0.1-0.04-0.15-0.05c-0.18-0.03-0.27-0.1-0.2-0.31
				c0.16-0.44,0.25-0.91,0.44-1.33c0.82-1.84,2.2-3.1,4.06-3.83c1.64-0.64,3.34-0.74,5.07-0.55c0.9,0.1,1.78,0.27,2.63,0.6
				c1.97,0.75,3.29,2.14,4.01,4.11c0.41,1.1,0.62,2.24,0.63,3.41c0.02,2.16,0,4.31,0,6.47C18.27,29.55,18.27,29.55,18.28,29.55z
				 M10.78,27.91c-0.52,0-1.04-0.02-1.56,0.01c-0.4,0.02-0.8,0.05-1.19,0.14c-1.33,0.33-2.06,1.3-1.98,2.67
				c0.08,1.34,1.09,1.99,1.99,2.02c1.21,0.04,2.31-0.29,3.27-1c1.18-0.87,1.8-2.05,1.75-3.54c-0.01-0.28-0.01-0.29-0.3-0.3
				C12.1,27.9,11.44,27.9,10.78,27.91z"/>
			<path d="M172.53,37.27c-2.24-0.05-4.18-0.81-5.87-2.27c-1.07-0.93-1.89-2.03-2.47-3.32c-0.14-0.3-0.14-0.31,0.16-0.47
				c1.2-0.67,2.4-1.34,3.6-2c0.25-0.14,0.26-0.13,0.36,0.14c0.34,0.89,0.81,1.7,1.53,2.33c1.12,0.98,2.4,1.28,3.83,0.83
				c1.04-0.33,1.64-1.43,1.41-2.49c-0.1-0.44-0.35-0.79-0.71-1.06c-0.56-0.42-1.2-0.69-1.85-0.94c-0.91-0.34-1.82-0.68-2.72-1.05
				c-0.87-0.36-1.68-0.82-2.4-1.44c-1-0.88-1.57-1.98-1.77-3.28c-0.2-1.37-0.04-2.7,0.6-3.95c0.91-1.77,2.37-2.87,4.28-3.29
				c2.96-0.66,5.53,0.15,7.64,2.34c0.23,0.24,0.41,0.52,0.61,0.78c0.12,0.15,0.11,0.27-0.04,0.4c-0.27,0.24-0.53,0.5-0.79,0.75
				c-0.63,0.6-1.27,1.19-1.9,1.78c-0.22,0.21-0.23,0.21-0.43-0.03c-0.63-0.76-1.42-1.28-2.38-1.51c-0.56-0.14-1.12-0.17-1.69,0
				c-1.16,0.34-1.67,1.86-0.74,2.87c0.37,0.41,0.86,0.65,1.37,0.83c1.06,0.38,2.13,0.75,3.18,1.15c0.91,0.35,1.78,0.77,2.57,1.37
				c1.62,1.22,2.23,2.87,2.08,4.84c-0.1,1.27-0.48,2.45-1.2,3.51c-1.05,1.53-2.51,2.48-4.3,2.9
				C173.85,37.14,173.19,37.18,172.53,37.27z"/>
			<path d="M124.58,26.09c0-3.44,0-6.89,0-10.33c0-0.62-0.04-0.55,0.57-0.55c1.36,0,2.71,0,4.07,0c0.61,0,0.58-0.04,0.58,0.6
				c0,0.87,0,1.74,0,2.61c0,0.05,0.02,0.1,0.04,0.15c0.04-0.04,0.1-0.07,0.13-0.12c0.63-0.98,1.39-1.82,2.38-2.45
				c1.48-0.95,3.08-1.32,4.82-1.04c0.41,0.07,0.81,0.16,1.22,0.25c0.16,0.04,0.21,0.14,0.18,0.31c-0.28,1.45-0.56,2.89-0.83,4.34
				c-0.01,0.07-0.04,0.13-0.06,0.2c-0.03,0.11-0.09,0.12-0.19,0.06c-0.45-0.27-0.94-0.42-1.47-0.48c-1.64-0.17-3.01,0.36-4.1,1.59
				c-0.9,1.02-1.36,2.25-1.67,3.54c-0.31,1.27-0.43,2.57-0.44,3.87c-0.01,2.52,0,5.04-0.01,7.57c0,0.07,0,0.14,0,0.21
				c0,0.45,0.07,0.5-0.47,0.5c-1.48,0.01-2.95,0.05-4.43,0.07c-0.31,0-0.32-0.01-0.32-0.32c0-0.99,0-1.98,0-2.97
				C124.58,31.17,124.58,28.63,124.58,26.09z"/>
			<path d="M183.26,33.07c0.04-0.96,0.64-2.15,2.06-2.78c2.05-0.91,4.62,0.19,4.94,2.77c0.12,0.95-0.03,1.84-0.56,2.63
				c-0.62,0.93-1.51,1.42-2.61,1.51C184.64,37.39,183.23,35.49,183.26,33.07z"/>
		</g>
	</g>
</g>
</svg>
