<?xml version="1.0" encoding="utf-8"?>
<!-- Generator: Adobe Illustrator 28.0.0, SVG Export Plug-In . SVG Version: 6.00 Build 0)  -->
<svg version="1.1" id="Layer_1" xmlns="http://www.w3.org/2000/svg" xmlns:xlink="http://www.w3.org/1999/xlink" x="0px" y="0px"
	 viewBox="0 0 598.86 598.86" style="enable-background:new 0 0 598.86 598.86;" xml:space="preserve">
<style type="text/css">
	.st0{fill:#FFFFFF;}
</style>
<g>
	<g>
		<path class="st0" d="M158.75,311.89h-12.11c-2.05,0-3.71-1.66-3.71-3.71v-12.11c0-2.05,1.66-3.71,3.71-3.71h12.11
			c2.05,0,3.71,1.66,3.71,3.71v12.11C162.46,310.23,160.8,311.89,158.75,311.89z M146.64,293.96c-1.16,0-2.11,0.95-2.11,2.11v12.11
			c0,1.16,0.95,2.11,2.11,2.11h12.11c1.16,0,2.11-0.95,2.11-2.11v-12.11c0-1.16-0.95-2.11-2.11-2.11H146.64z"/>
	</g>
	<g>
		<path class="st0" d="M143.73,306.49h-2.48c-2.05,0-3.71-1.66-3.71-3.71v-12.11c0-2.05,1.66-3.71,3.71-3.71h12.11
			c2.05,0,3.71,1.66,3.71,3.71v2.48h-1.6v-2.48c0-1.16-0.95-2.11-2.11-2.11h-12.11c-1.16,0-2.11,0.95-2.11,2.11v12.11
			c0,1.16,0.95,2.11,2.11,2.11h2.48V306.49z"/>
	</g>
</g>
<g>
	<g>
		<path class="st0" d="M458.75,311.89h-12.11c-2.05,0-3.71-1.66-3.71-3.71v-12.11c0-2.05,1.66-3.71,3.71-3.71h12.11
			c2.05,0,3.71,1.66,3.71,3.71v12.11C462.46,310.23,460.8,311.89,458.75,311.89z M446.64,293.96c-1.16,0-2.11,0.95-2.11,2.11v12.11
			c0,1.16,0.95,2.11,2.11,2.11h12.11c1.16,0,2.11-0.95,2.11-2.11v-12.11c0-1.16-0.95-2.11-2.11-2.11H446.64z"/>
	</g>
	<g>
		<path class="st0" d="M443.73,306.49h-2.48c-2.05,0-3.71-1.66-3.71-3.71v-12.11c0-2.05,1.66-3.71,3.71-3.71h12.11
			c2.05,0,3.71,1.66,3.71,3.71v2.48h-1.6v-2.48c0-1.16-0.95-2.11-2.11-2.11h-12.11c-1.16,0-2.11,0.95-2.11,2.11v12.11
			c0,1.16,0.95,2.11,2.11,2.11h2.48V306.49z"/>
	</g>
</g>
<g>
	<g>
		<path class="st0" d="M158.75,13.03h-12.11c-2.05,0-3.71-1.66-3.71-3.71V-2.79c0-2.05,1.66-3.71,3.71-3.71h12.11
			c2.05,0,3.71,1.66,3.71,3.71V9.32C162.46,11.37,160.8,13.03,158.75,13.03z M146.64-4.9c-1.16,0-2.11,0.95-2.11,2.11V9.32
			c0,1.16,0.95,2.11,2.11,2.11h12.11c1.16,0,2.11-0.95,2.11-2.11V-2.79c0-1.16-0.95-2.11-2.11-2.11
			C158.75-4.9,146.64-4.9,146.64-4.9z"/>
	</g>
	<g>
		<path class="st0" d="M143.73,7.64h-2.48c-2.05,0-3.71-1.66-3.71-3.71V-8.18c0-2.05,1.66-3.71,3.71-3.71h12.11
			c2.05,0,3.71,1.66,3.71,3.71v2.48h-1.6v-2.48c0-1.16-0.95-2.11-2.11-2.11h-12.11c-1.16,0-2.11,0.95-2.11,2.11V3.93
			c0,1.16,0.95,2.11,2.11,2.11h2.48V7.64z"/>
	</g>
</g>
<g>
	<g>
		<path class="st0" d="M458.75,13.03h-12.11c-2.05,0-3.71-1.66-3.71-3.71V-2.79c0-2.05,1.66-3.71,3.71-3.71h12.11
			c2.05,0,3.71,1.66,3.71,3.71V9.32C462.46,11.37,460.8,13.03,458.75,13.03z M446.64-4.9c-1.16,0-2.11,0.95-2.11,2.11V9.32
			c0,1.16,0.95,2.11,2.11,2.11h12.11c1.16,0,2.11-0.95,2.11-2.11V-2.79c0-1.16-0.95-2.11-2.11-2.11
			C458.75-4.9,446.64-4.9,446.64-4.9z"/>
	</g>
	<g>
		<path class="st0" d="M443.73,7.64h-2.48c-2.05,0-3.71-1.66-3.71-3.71V-8.18c0-2.05,1.66-3.71,3.71-3.71h12.11
			c2.05,0,3.71,1.66,3.71,3.71v2.48h-1.6v-2.48c0-1.16-0.95-2.11-2.11-2.11h-12.11c-1.16,0-2.11,0.95-2.11,2.11V3.93
			c0,1.16,0.95,2.11,2.11,2.11h2.48V7.64z"/>
	</g>
</g>
<g>
	<g>
		<path class="st0" d="M158.75,611.15h-12.11c-2.05,0-3.71-1.66-3.71-3.71v-12.11c0-2.05,1.66-3.71,3.71-3.71h12.11
			c2.05,0,3.71,1.66,3.71,3.71v12.11C162.46,609.49,160.8,611.15,158.75,611.15z M146.64,593.22c-1.16,0-2.11,0.95-2.11,2.11v12.11
			c0,1.16,0.95,2.11,2.11,2.11h12.11c1.16,0,2.11-0.95,2.11-2.11v-12.11c0-1.16-0.95-2.11-2.11-2.11H146.64z"/>
	</g>
	<g>
		<path class="st0" d="M143.73,605.75h-2.48c-2.05,0-3.71-1.66-3.71-3.71v-12.11c0-2.05,1.66-3.71,3.71-3.71h12.11
			c2.05,0,3.71,1.66,3.71,3.71v2.48h-1.6v-2.48c0-1.16-0.95-2.11-2.11-2.11h-12.11c-1.16,0-2.11,0.95-2.11,2.11v12.11
			c0,1.16,0.95,2.11,2.11,2.11h2.48V605.75z"/>
	</g>
</g>
<g>
	<g>
		<path class="st0" d="M458.75,611.15h-12.11c-2.05,0-3.71-1.66-3.71-3.71v-12.11c0-2.05,1.66-3.71,3.71-3.71h12.11
			c2.05,0,3.71,1.66,3.71,3.71v12.11C462.46,609.49,460.8,611.15,458.75,611.15z M446.64,593.22c-1.16,0-2.11,0.95-2.11,2.11v12.11
			c0,1.16,0.95,2.11,2.11,2.11h12.11c1.16,0,2.11-0.95,2.11-2.11v-12.11c0-1.16-0.95-2.11-2.11-2.11H446.64z"/>
	</g>
	<g>
		<path class="st0" d="M443.73,605.75h-2.48c-2.05,0-3.71-1.66-3.71-3.71v-12.11c0-2.05,1.66-3.71,3.71-3.71h12.11
			c2.05,0,3.71,1.66,3.71,3.71v2.48h-1.6v-2.48c0-1.16-0.95-2.11-2.11-2.11h-12.11c-1.16,0-2.11,0.95-2.11,2.11v12.11
			c0,1.16,0.95,2.11,2.11,2.11h2.48V605.75z"/>
	</g>
</g>
<g id="Bu4aw1.tif_00000161600948538709049120000004492824127856032956_">
	<g>
		<g>
			<path class="st0" d="M597.38,162.75c-2.05,0.03-3.95-0.5-5.71-1.45c-2.33-1.26-3.86-3.22-4.63-5.78
				c-0.51-1.71-0.68-3.47-0.51-5.24c0.58-6.25,4.49-11.18,10.48-12.57c1.08-0.25,2.2-0.5,3.3-0.47c2.98,0.07,5.82,0.75,8.11,2.8
				c1.58,1.42,2.48,3.23,2.83,5.36c0.45,2.77-0.13,5.31-1.52,7.65c-1.13,1.92-2.82,3.08-5.17,3.12c-0.99,0.02-1.75-0.34-2.36-1.1
				c-0.46-0.58-0.47-0.56-1.1-0.15c-0.43,0.28-0.85,0.6-1.32,0.81c-2.79,1.23-5.91-0.07-6.55-3.29c-0.48-2.44,0.07-4.62,1.58-6.52
				c1.7-2.14,4.71-2.52,6.54-1.59c0.19,0.1,0.37,0.21,0.56,0.32c0.28,0.17,0.56,0.34,0.83,0.52c0.14-0.25,0.26-0.52,0.43-0.76
				c0.2-0.29,1.52-0.34,1.68-0.07c0.05,0.09,0.01,0.24-0.01,0.36c-0.22,1.4-0.44,2.79-0.68,4.18c-0.22,1.31-0.5,2.6-0.69,3.91
				c-0.16,1.04,0.57,1.71,1.62,1.58c1.13-0.14,2.02-0.71,2.69-1.6c1.06-1.42,1.58-3.04,1.58-4.81c0-1.16,0.04-2.31-0.34-3.45
				c-0.84-2.53-2.57-4.13-5.05-4.91c-1.05-0.33-2.19-0.51-3.29-0.54c-5.93-0.18-10.75,3.77-11.97,9.51
				c-0.46,2.15-0.36,4.35,0.29,6.49c0.71,2.3,2.2,4,4.34,5.03c0.86,0.41,1.89,0.57,2.86,0.67c1.44,0.16,2.92,0.2,4.32-0.26
				c1.02-0.33,2-0.77,2.98-1.2c0.86-0.38,0.71-0.49,1.22,0.44c0.04,0.08,0.06,0.16,0.11,0.23c0.23,0.33,0.09,0.56-0.2,0.74
				c-1.25,0.78-2.61,1.33-4.04,1.62C599.52,162.57,598.44,162.63,597.38,162.75z M595.12,150.89c0,0.3-0.05,0.61,0.01,0.9
				c0.19,0.99,0.43,2.04,1.52,2.37c1.57,0.48,3.3,0.25,4.35-1.35c0.9-1.37,1.2-2.94,1.04-4.56c-0.18-1.8-1.33-2.82-2.98-2.71
				c-0.83,0.06-1.59,0.33-2.21,0.93C595.61,147.69,595.1,149.19,595.12,150.89z"/>
		</g>
	</g>
</g>
<g id="Bu4aw1.tif_00000009548706895225270700000011881549163974504859_">
	<g>
		<g>
			<path class="st0" d="M597.38,461.81c-2.05,0.03-3.95-0.5-5.71-1.45c-2.33-1.26-3.86-3.22-4.63-5.78
				c-0.51-1.71-0.68-3.47-0.51-5.24c0.58-6.25,4.49-11.18,10.48-12.57c1.08-0.25,2.2-0.5,3.3-0.47c2.98,0.07,5.82,0.75,8.11,2.8
				c1.58,1.42,2.48,3.23,2.83,5.36c0.45,2.77-0.13,5.31-1.52,7.65c-1.13,1.92-2.82,3.08-5.17,3.12c-0.99,0.02-1.75-0.34-2.36-1.1
				c-0.46-0.58-0.47-0.56-1.1-0.15c-0.43,0.28-0.85,0.6-1.32,0.81c-2.79,1.23-5.91-0.07-6.55-3.29c-0.48-2.44,0.07-4.62,1.58-6.52
				c1.7-2.14,4.71-2.52,6.54-1.59c0.19,0.1,0.37,0.21,0.56,0.32c0.28,0.17,0.56,0.34,0.83,0.52c0.14-0.25,0.26-0.52,0.43-0.76
				c0.2-0.29,1.52-0.34,1.68-0.07c0.05,0.09,0.01,0.24-0.01,0.36c-0.22,1.4-0.44,2.79-0.68,4.18c-0.22,1.31-0.5,2.6-0.69,3.91
				c-0.16,1.04,0.57,1.71,1.62,1.58c1.13-0.14,2.02-0.71,2.69-1.6c1.06-1.42,1.58-3.04,1.58-4.81c0-1.16,0.04-2.31-0.34-3.45
				c-0.84-2.53-2.57-4.13-5.05-4.91c-1.05-0.33-2.19-0.51-3.29-0.54c-5.93-0.18-10.75,3.77-11.97,9.51
				c-0.46,2.15-0.36,4.35,0.29,6.49c0.71,2.3,2.2,4,4.34,5.03c0.86,0.41,1.89,0.57,2.86,0.67c1.44,0.16,2.92,0.2,4.32-0.26
				c1.02-0.33,2-0.77,2.98-1.2c0.86-0.38,0.71-0.49,1.22,0.44c0.04,0.08,0.06,0.16,0.11,0.23c0.23,0.33,0.09,0.56-0.2,0.74
				c-1.25,0.78-2.61,1.33-4.04,1.62C599.52,461.63,598.44,461.69,597.38,461.81z M595.12,449.95c0,0.3-0.05,0.61,0.01,0.9
				c0.19,0.99,0.43,2.04,1.52,2.37c1.57,0.48,3.3,0.25,4.35-1.35c0.9-1.37,1.2-2.94,1.04-4.56c-0.18-1.8-1.33-2.82-2.98-2.71
				c-0.83,0.06-1.59,0.33-2.21,0.93C595.61,446.75,595.1,448.25,595.12,449.95z"/>
		</g>
	</g>
</g>
<g id="Bu4aw1.tif_00000036971517692151687410000002111777976054509699_">
	<g>
		<g>
			<path class="st0" d="M-0.43,162.75c-2.05,0.03-3.95-0.5-5.71-1.45c-2.33-1.26-3.86-3.22-4.63-5.78
				c-0.51-1.71-0.68-3.47-0.51-5.24c0.58-6.25,4.49-11.18,10.48-12.57c1.08-0.25,2.2-0.5,3.3-0.47c2.98,0.07,5.82,0.75,8.11,2.8
				c1.58,1.42,2.48,3.23,2.83,5.36c0.45,2.77-0.13,5.31-1.52,7.65c-1.13,1.92-2.82,3.08-5.17,3.12c-0.99,0.02-1.75-0.34-2.36-1.1
				c-0.46-0.58-0.47-0.56-1.1-0.15c-0.43,0.28-0.85,0.6-1.32,0.81c-2.79,1.23-5.91-0.07-6.55-3.29c-0.48-2.44,0.07-4.62,1.58-6.52
				c1.7-2.14,4.71-2.52,6.54-1.59c0.19,0.1,0.37,0.21,0.56,0.32c0.28,0.17,0.56,0.34,0.83,0.52c0.14-0.25,0.26-0.52,0.43-0.76
				c0.2-0.29,1.52-0.34,1.68-0.07c0.05,0.09,0.01,0.24-0.01,0.36c-0.22,1.4-0.44,2.79-0.68,4.18c-0.22,1.31-0.5,2.6-0.69,3.91
				c-0.16,1.04,0.57,1.71,1.62,1.58c1.13-0.14,2.02-0.71,2.69-1.6c1.06-1.42,1.58-3.04,1.58-4.81c0-1.16,0.04-2.31-0.34-3.45
				c-0.84-2.53-2.57-4.13-5.05-4.91c-1.05-0.33-2.19-0.51-3.29-0.54c-5.93-0.18-10.75,3.77-11.97,9.51
				c-0.46,2.15-0.36,4.35,0.29,6.49c0.71,2.3,2.2,4,4.34,5.03c0.86,0.41,1.89,0.57,2.86,0.67c1.44,0.16,2.92,0.2,4.32-0.26
				c1.02-0.33,2-0.77,2.98-1.2c0.86-0.38,0.71-0.49,1.22,0.44c0.04,0.08,0.06,0.16,0.11,0.23c0.23,0.33,0.09,0.56-0.2,0.74
				c-1.25,0.78-2.61,1.33-4.04,1.62C1.72,162.57,0.64,162.63-0.43,162.75z M-2.68,150.89c0,0.3-0.05,0.61,0.01,0.9
				c0.19,0.99,0.43,2.04,1.52,2.37c1.57,0.48,3.3,0.25,4.35-1.35c0.9-1.37,1.2-2.94,1.04-4.56c-0.18-1.8-1.33-2.82-2.98-2.71
				c-0.83,0.06-1.59,0.33-2.21,0.93C-2.19,147.69-2.7,149.19-2.68,150.89z"/>
		</g>
	</g>
</g>
<g id="Bu4aw1.tif_00000115506928789768111650000002222211070219045049_">
	<g>
		<g>
			<path class="st0" d="M-0.43,461.81c-2.05,0.03-3.95-0.5-5.71-1.45c-2.33-1.26-3.86-3.22-4.63-5.78
				c-0.51-1.71-0.68-3.47-0.51-5.24c0.58-6.25,4.49-11.18,10.48-12.57c1.08-0.25,2.2-0.5,3.3-0.47c2.98,0.07,5.82,0.75,8.11,2.8
				c1.58,1.42,2.48,3.23,2.83,5.36c0.45,2.77-0.13,5.31-1.52,7.65c-1.13,1.92-2.82,3.08-5.17,3.12c-0.99,0.02-1.75-0.34-2.36-1.1
				c-0.46-0.58-0.47-0.56-1.1-0.15c-0.43,0.28-0.85,0.6-1.32,0.81c-2.79,1.23-5.91-0.07-6.55-3.29c-0.48-2.44,0.07-4.62,1.58-6.52
				c1.7-2.14,4.71-2.52,6.54-1.59c0.19,0.1,0.37,0.21,0.56,0.32c0.28,0.17,0.56,0.34,0.83,0.52c0.14-0.25,0.26-0.52,0.43-0.76
				c0.2-0.29,1.52-0.34,1.68-0.07c0.05,0.09,0.01,0.24-0.01,0.36c-0.22,1.4-0.44,2.79-0.68,4.18c-0.22,1.31-0.5,2.6-0.69,3.91
				c-0.16,1.04,0.57,1.71,1.62,1.58c1.13-0.14,2.02-0.71,2.69-1.6c1.06-1.42,1.58-3.04,1.58-4.81c0-1.16,0.04-2.31-0.34-3.45
				c-0.84-2.53-2.57-4.13-5.05-4.91c-1.05-0.33-2.19-0.51-3.29-0.54c-5.93-0.18-10.75,3.77-11.97,9.51
				c-0.46,2.15-0.36,4.35,0.29,6.49c0.71,2.3,2.2,4,4.34,5.03c0.86,0.41,1.89,0.57,2.86,0.67c1.44,0.16,2.92,0.2,4.32-0.26
				c1.02-0.33,2-0.77,2.98-1.2c0.86-0.38,0.71-0.49,1.22,0.44c0.04,0.08,0.06,0.16,0.11,0.23c0.23,0.33,0.09,0.56-0.2,0.74
				c-1.25,0.78-2.61,1.33-4.04,1.62C1.72,461.63,0.64,461.69-0.43,461.81z M-2.68,449.95c0,0.3-0.05,0.61,0.01,0.9
				c0.19,0.99,0.43,2.04,1.52,2.37c1.57,0.48,3.3,0.25,4.35-1.35c0.9-1.37,1.2-2.94,1.04-4.56c-0.18-1.8-1.33-2.82-2.98-2.71
				c-0.83,0.06-1.59,0.33-2.21,0.93C-2.19,446.75-2.7,448.25-2.68,449.95z"/>
		</g>
	</g>
</g>
<path class="st0" d="M288.22,161.95c-0.4,1.8-1.83,3.06-4.08,3.06c-3.06,0-4.76-2.24-4.76-5.23c0-3,1.72-5.23,4.77-5.23
	c2.08,0,3.55,1.1,3.95,2.83h-1.37c-0.39-1.08-1.17-1.67-2.58-1.67c-2.39,0-3.46,1.94-3.46,4.07c0,2.15,1.05,4.07,3.45,4.07
	c1.44,0,2.38-0.74,2.71-1.9H288.22z M299.63,159.77c0,2.91-1.67,5.23-4.8,5.23c-3.14,0-4.8-2.32-4.8-5.23c0-2.91,1.66-5.23,4.8-5.23
	C297.96,154.54,299.63,156.86,299.63,159.77z M298.32,159.77c0-2.12-1.04-4.07-3.49-4.07c-2.45,0-3.49,1.95-3.49,4.07
	c0,2.12,1.04,4.07,3.49,4.07C297.28,163.85,298.32,161.89,298.32,159.77z M309.73,157.73c0,1.9-1.25,3.04-3.49,3.04h-3.21v4.05h-1.3
	v-10.1h4.5C308.47,154.72,309.73,155.87,309.73,157.73z M308.42,157.75c0-1.17-0.63-1.89-2.39-1.89h-2.99v3.79h2.99
	C307.78,159.64,308.42,158.92,308.42,157.75z M318.21,154.72h1.37l-3.7,6.24v3.86h-1.3v-3.86l-3.7-6.24h1.43l2.75,4.6h0.4
	L318.21,154.72z M287.65,142.32c-0.4,1.8-1.8,3.06-4,3.06c-3,0-4.67-2.24-4.67-5.23c0-3,1.68-5.23,4.68-5.23
	c2.04,0,3.48,1.1,3.88,2.83h-1.34c-0.38-1.08-1.15-1.67-2.53-1.67c-2.35,0-3.4,1.94-3.4,4.07c0,2.15,1.03,4.07,3.38,4.07
	c1.41,0,2.34-0.74,2.66-1.9H287.65z M296.04,143.99v1.2h-6.39v-10.1h1.27v8.9H296.04z M299.27,135.09v10.1h-1.27v-10.1H299.27z
	 M309.74,142.32c-0.4,1.8-1.8,3.06-4,3.06c-3,0-4.67-2.24-4.67-5.23c0-3,1.68-5.23,4.68-5.23c2.04,0,3.48,1.1,3.88,2.83h-1.34
	c-0.38-1.08-1.15-1.67-2.53-1.67c-2.35,0-3.4,1.94-3.4,4.07c0,2.15,1.03,4.07,3.38,4.07c1.41,0,2.34-0.74,2.66-1.9H309.74z
	 M319.57,135.09l-3.51,3.38l3.82,6.72h-1.43l-3.21-5.64h-0.28l-2.21,2.16v3.48h-1.27v-10.1h1.27v5.04l5.18-5.04H319.57z
	 M279.32,149.46v1.13h14.01v-1.13H279.32z M305.88,149.46v1.13h14.01v-1.13H305.88z M298.67,147.97l-0.08,0.98h-1.16v1.73
	c0,0.23,0.05,0.38,0.16,0.48c0.11,0.09,0.26,0.14,0.46,0.14c0.12,0,0.22-0.02,0.33-0.06c0.1-0.04,0.19-0.08,0.25-0.13l0.06,0.98
	c-0.23,0.14-0.53,0.21-0.91,0.21c-0.51,0-0.89-0.13-1.13-0.38c-0.24-0.25-0.36-0.62-0.36-1.1v-1.86h-0.59v-0.98h0.59v-0.9l1.14-0.25
	v1.15H298.67z M303.69,150.1c0,0.43-0.1,0.8-0.29,1.13c-0.2,0.33-0.47,0.59-0.81,0.78c-0.34,0.19-0.74,0.28-1.18,0.28
	c-0.43,0-0.82-0.09-1.17-0.28c-0.35-0.19-0.62-0.45-0.82-0.78c-0.2-0.33-0.29-0.71-0.29-1.13c0-0.43,0.1-0.81,0.29-1.14
	s0.47-0.59,0.82-0.78c0.35-0.19,0.74-0.28,1.17-0.28c0.44,0,0.84,0.09,1.18,0.28c0.34,0.19,0.61,0.45,0.81,0.78
	C303.59,149.29,303.69,149.67,303.69,150.1z M302.5,150.1c0-0.25-0.05-0.46-0.14-0.63c-0.1-0.18-0.23-0.32-0.39-0.42
	c-0.16-0.1-0.35-0.15-0.56-0.15c-0.2,0-0.38,0.05-0.56,0.15c-0.17,0.1-0.3,0.24-0.4,0.42c-0.09,0.18-0.14,0.39-0.14,0.63
	c0,0.24,0.05,0.45,0.15,0.63c0.1,0.18,0.23,0.32,0.4,0.42c0.17,0.1,0.35,0.15,0.55,0.15c0.21,0,0.4-0.05,0.57-0.15
	c0.17-0.1,0.3-0.24,0.39-0.42C302.45,150.55,302.5,150.34,302.5,150.1z"/>
<path class="st0" d="M288.22,461.01c-0.4,1.8-1.83,3.06-4.08,3.06c-3.06,0-4.76-2.24-4.76-5.23c0-3,1.72-5.23,4.77-5.23
	c2.08,0,3.55,1.1,3.95,2.83h-1.37c-0.39-1.08-1.17-1.67-2.58-1.67c-2.39,0-3.46,1.94-3.46,4.07c0,2.15,1.05,4.07,3.45,4.07
	c1.44,0,2.38-0.74,2.71-1.9H288.22z M299.63,458.83c0,2.91-1.67,5.23-4.8,5.23c-3.14,0-4.8-2.32-4.8-5.23s1.66-5.23,4.8-5.23
	C297.96,453.6,299.63,455.92,299.63,458.83z M298.32,458.83c0-2.12-1.04-4.07-3.49-4.07c-2.45,0-3.49,1.95-3.49,4.07
	c0,2.12,1.04,4.07,3.49,4.07C297.28,462.91,298.32,460.95,298.32,458.83z M309.73,456.79c0,1.9-1.25,3.04-3.49,3.04h-3.21v4.05h-1.3
	v-10.1h4.5C308.47,453.78,309.73,454.93,309.73,456.79z M308.42,456.81c0-1.17-0.63-1.89-2.39-1.89h-2.99v3.79h2.99
	C307.78,458.7,308.42,457.98,308.42,456.81z M318.21,453.78h1.37l-3.7,6.24v3.86h-1.3v-3.86l-3.7-6.24h1.43l2.75,4.6h0.4
	L318.21,453.78z M287.65,441.38c-0.4,1.8-1.8,3.06-4,3.06c-3,0-4.67-2.24-4.67-5.23c0-3,1.68-5.23,4.68-5.23
	c2.04,0,3.48,1.1,3.88,2.83h-1.34c-0.38-1.08-1.15-1.67-2.53-1.67c-2.35,0-3.4,1.94-3.4,4.07c0,2.15,1.03,4.07,3.38,4.07
	c1.41,0,2.34-0.74,2.66-1.9H287.65z M296.04,443.05v1.2h-6.39v-10.1h1.27v8.9H296.04z M299.27,434.15v10.1h-1.27v-10.1H299.27z
	 M309.74,441.38c-0.4,1.8-1.8,3.06-4,3.06c-3,0-4.67-2.24-4.67-5.23c0-3,1.68-5.23,4.68-5.23c2.04,0,3.48,1.1,3.88,2.83h-1.34
	c-0.38-1.08-1.15-1.67-2.53-1.67c-2.35,0-3.4,1.94-3.4,4.07c0,2.15,1.03,4.07,3.38,4.07c1.41,0,2.34-0.74,2.66-1.9H309.74z
	 M319.57,434.15l-3.51,3.38l3.82,6.72h-1.43l-3.21-5.64h-0.28l-2.21,2.16v3.48h-1.27v-10.1h1.27v5.04l5.18-5.04H319.57z
	 M279.32,448.52v1.13h14.01v-1.13H279.32z M305.88,448.52v1.13h14.01v-1.13H305.88z M298.67,447.03l-0.08,0.98h-1.16v1.73
	c0,0.23,0.05,0.38,0.16,0.48c0.11,0.09,0.26,0.14,0.46,0.14c0.12,0,0.22-0.02,0.33-0.06c0.1-0.04,0.19-0.08,0.25-0.13l0.06,0.98
	c-0.23,0.14-0.53,0.21-0.91,0.21c-0.51,0-0.89-0.13-1.13-0.38c-0.24-0.25-0.36-0.62-0.36-1.1v-1.86h-0.59v-0.98h0.59v-0.9l1.14-0.25
	v1.15H298.67z M303.69,449.16c0,0.43-0.1,0.8-0.29,1.13c-0.2,0.33-0.47,0.59-0.81,0.78c-0.34,0.19-0.74,0.28-1.18,0.28
	c-0.43,0-0.82-0.09-1.17-0.28c-0.35-0.19-0.62-0.45-0.82-0.78c-0.2-0.33-0.29-0.71-0.29-1.13c0-0.43,0.1-0.81,0.29-1.14
	s0.47-0.59,0.82-0.78c0.35-0.19,0.74-0.28,1.17-0.28c0.44,0,0.84,0.09,1.18,0.28c0.34,0.19,0.61,0.45,0.81,0.78
	C303.59,448.35,303.69,448.73,303.69,449.16z M302.5,449.16c0-0.25-0.05-0.46-0.14-0.63c-0.1-0.18-0.23-0.32-0.39-0.42
	c-0.16-0.1-0.35-0.15-0.56-0.15c-0.2,0-0.38,0.05-0.56,0.15c-0.17,0.1-0.3,0.24-0.4,0.42c-0.09,0.18-0.14,0.39-0.14,0.63
	c0,0.24,0.05,0.45,0.15,0.63c0.1,0.18,0.23,0.32,0.4,0.42c0.17,0.1,0.35,0.15,0.55,0.15c0.21,0,0.4-0.05,0.57-0.15
	c0.17-0.1,0.3-0.24,0.39-0.42C302.45,449.61,302.5,449.4,302.5,449.16z"/>
</svg>
