<?xml version="1.0" encoding="utf-8"?>
<!-- Generator: Adobe Illustrator 28.0.0, SVG Export Plug-In . SVG Version: 6.00 Build 0)  -->
<svg version="1.1" id="Layer_1" xmlns="http://www.w3.org/2000/svg" xmlns:xlink="http://www.w3.org/1999/xlink" x="0px" y="0px"
	 viewBox="0 0 200 50" style="enable-background:new 0 0 200 50;" xml:space="preserve">
<g id="ClpNC2.tif">
	<g>
		<g>
			<path d="M22.66,44.6c-1.93,0-3.85,0-5.78-0.01c-0.13,0-0.26-0.07-0.39-0.1c0.07-0.12,0.13-0.25,0.22-0.35
				c1.49-1.5,2.98-3,4.48-4.5c2.39-2.4,4.78-4.8,7.17-7.19c0.93-0.93,0.96-0.79,0.03-1.72c-3.72-3.73-7.44-7.45-11.16-11.18
				c-0.13-0.13-0.27-0.27-0.4-0.4c-0.66-0.67-0.67-0.68,0.01-1.36c1.72-1.74,3.44-3.48,5.16-5.21c0.54-0.55,0.57-0.54,1.1-0.02
				c1.67,1.65,3.33,3.31,4.99,4.98c4.38,4.39,8.76,8.79,13.14,13.18c0.2,0.2,0.4,0.4,0.6,0.6c0.2,0.2,0.22,0.39,0,0.6
				c-0.17,0.16-0.34,0.33-0.5,0.5c-3.79,3.79-7.58,7.57-11.35,11.39c-0.57,0.58-1.15,0.84-1.97,0.81
				C26.23,44.57,24.45,44.6,22.66,44.6z"/>
			<path d="M20.24,5.4c1.93,0,3.85,0,5.78,0c0.13,0,0.27,0.05,0.4,0.08C26.35,5.63,26.3,5.8,26.2,5.91
				c-3.92,3.92-7.85,7.84-11.78,11.76c-0.1,0.1-0.19,0.21-0.3,0.3c-0.42,0.38-0.33,0.72,0.05,1.06c0.17,0.16,0.33,0.33,0.5,0.5
				c3.49,3.49,6.98,6.98,10.47,10.47c0.1,0.1,0.2,0.2,0.3,0.3c0.41,0.42,0.82,0.85,1.23,1.27c-0.42,0.44-0.83,0.89-1.26,1.32
				c-1.49,1.5-2.98,3-4.49,4.49c-0.58,0.58-0.61,0.58-1.22-0.03c-2.23-2.22-4.45-4.46-6.68-6.68C9.31,27,5.6,23.33,1.89,19.66
				c-0.23-0.23-0.46-0.48-0.7-0.7c-0.34-0.31-0.4-0.61-0.03-0.95c0.17-0.16,0.33-0.33,0.5-0.5c3.72-3.73,7.45-7.44,11.15-11.19
				c0.64-0.64,1.28-0.99,2.22-0.95C16.76,5.46,18.5,5.4,20.24,5.4z"/>
		</g>
	</g>
</g>
<g id="Rzrjbl.tif">
	<g>
		<g>
			<path d="M129.68,24.56c0-2.5-0.01-4.99,0-7.49c0-1.02,0.09-1.11,1.07-1.12c1.96-0.01,3.92-0.07,5.87,0.05
				c1.65,0.1,3.29,0.49,4.6,1.55c0.74,0.6,1.39,1.38,1.85,2.22c1.08,1.97,1.44,4.16,1.1,6.35c-0.3,1.95-0.88,3.86-2.5,5.25
				c-0.76,0.65-1.61,1.06-2.54,1.39c-1.35,0.49-2.74,0.53-4.14,0.52c-1.45-0.01-2.9,0.01-4.34-0.01c-0.83-0.01-0.96-0.13-0.97-0.97
				C129.67,29.73,129.68,27.14,129.68,24.56z M133.97,24.74c0,1.31-0.01,2.63,0.01,3.94c0.01,0.86,0.23,1.05,1.08,0.96
				c0.46-0.05,0.92-0.15,1.37-0.28c1.48-0.42,2.55-1.8,2.74-3.32c0.1-0.84-0.02-1.67-0.03-2.5c-0.01-0.94-0.46-1.71-1.05-2.36
				c-0.89-0.98-2.12-1.16-3.39-1.13c-0.67,0.01-0.72,0.05-0.73,0.74C133.95,22.11,133.96,23.42,133.97,24.74z"/>
			<path d="M168.6,33.75c-0.55,0-1.11,0.02-1.66,0c-0.79-0.03-1.05-0.26-1.19-1.02c-0.02-0.12-0.01-0.26-0.03-0.38
				c-0.38-1.92-0.38-1.92-2.37-1.92c-0.94,0-1.88,0.01-2.81,0c-0.56-0.01-0.85,0.19-0.94,0.78c-0.1,0.66-0.32,1.31-0.48,1.96
				c-0.09,0.39-0.33,0.58-0.72,0.58c-1.32,0-2.64,0-3.96,0c-0.31,0-0.46-0.19-0.44-0.49c0.02-0.29,0.01-0.6,0.1-0.88
				c0.64-1.95,1.31-3.89,1.94-5.85c0.72-2.24,1.39-4.5,2.1-6.74c0.29-0.91,0.67-1.8,0.96-2.72c0.14-0.44,0.39-0.63,0.82-0.63
				c1.75,0,3.49,0,5.24,0c0.33,0,0.54,0.11,0.64,0.47c0.32,1.08,0.66,2.15,1.02,3.21c0.41,1.23,0.84,2.46,1.24,3.7
				c0.61,1.88,1.2,3.76,1.81,5.64c0.28,0.87,0.6,1.73,0.89,2.6c0.07,0.2,0.11,0.41,0.14,0.61c0.18,1.05,0.16,1.07-0.88,1.09
				C169.53,33.76,169.06,33.75,168.6,33.75z M162.2,26.17c0.13,0,0.25,0,0.38,0c1.2-0.01,1.24-0.06,1.1-1.2
				c-0.03-0.21-0.07-0.41-0.12-0.61c-0.3-1.12-0.6-2.25-0.91-3.37c-0.04-0.14-0.15-0.27-0.22-0.41c-0.14,0.08-0.33,0.12-0.4,0.24
				c-0.16,0.29-0.28,0.61-0.37,0.93c-0.26,0.93-0.47,1.86-0.74,2.78C160.43,26.16,160.43,26.17,162.2,26.17z"/>
			<path d="M111.73,33.88c-1.33-0.05-2.52-0.57-3.75-0.86c-0.21-0.05-0.39-0.16-0.6-0.22c-1-0.3-1.01-0.3-1.02-1.23
				c-0.01-0.76-0.02-1.53,0.01-2.29c0.01-0.52,0.24-0.69,0.73-0.56c0.2,0.05,0.39,0.16,0.59,0.25c1.41,0.61,2.88,1.01,4.43,0.97
				c0.37-0.01,0.78-0.08,1.09-0.25c0.83-0.47,0.79-1.7-0.1-2.01c-1.49-0.52-2.78-1.41-4.17-2.11c-3.42-1.72-3.34-6.37-0.39-8.24
				c1.83-1.16,3.88-1.69,6.08-1.2c1.19,0.26,2.38,0.57,3.57,0.85c0.39,0.09,0.47,0.31,0.34,0.65c-0.32,0.82-0.64,1.64-0.98,2.45
				c-0.14,0.35-0.43,0.55-0.81,0.49c-0.37-0.05-0.73-0.18-1.1-0.27c-0.78-0.18-1.56-0.38-2.35-0.51c-0.32-0.05-0.69-0.01-1,0.09
				c-0.37,0.12-0.85,0.15-0.87,0.76c-0.02,0.53,0.12,0.87,0.62,1.11c1.15,0.54,2.29,1.13,3.43,1.7c1.09,0.55,1.86,1.46,2.61,2.39
				c0.6,0.75,0.59,1.64,0.56,2.54c-0.07,2.37-1.23,4.07-3.46,4.79C114.08,33.5,112.89,33.64,111.73,33.88z"/>
			<path d="M84.59,30.47c0-0.38-0.02-0.76,0-1.14c0.03-0.62,0.34-0.8,0.92-0.56c0.5,0.2,1,0.42,1.51,0.61
				c1.04,0.39,2.13,0.53,3.23,0.56c0.17,0,0.35,0,0.51-0.03c0.69-0.16,1.19-0.62,1.22-1.14c0.05-0.67-0.4-0.96-0.93-1.21
				c-1.33-0.65-2.65-1.3-3.96-1.98c-0.37-0.19-0.71-0.45-1.05-0.71c-1.36-1.02-1.48-2.5-1.41-4c0.03-0.57,0.21-1.16,0.45-1.69
				c0.71-1.59,2.1-2.32,3.71-2.76c0.94-0.26,1.86-0.53,2.87-0.46c1.49,0.1,2.93,0.38,4.32,0.93c0.66,0.26,0.8,0.49,0.58,1.11
				c-0.22,0.59-0.51,1.15-0.78,1.73c-0.14,0.3-0.24,0.8-0.45,0.85c-0.37,0.1-0.88,0.03-1.21-0.16c-0.81-0.49-1.73-0.37-2.59-0.61
				c-0.59-0.17-1.18,0.04-1.68,0.42c-0.55,0.43-0.55,0.95,0.07,1.31c0.9,0.53,1.85,1,2.78,1.48c0.37,0.2,0.75,0.37,1.13,0.57
				c1.76,0.91,2.75,2.41,2.94,4.3c0.13,1.24-0.13,2.57-0.97,3.59c-0.75,0.91-1.72,1.61-2.97,1.8c-0.79,0.12-1.57,0.35-2.37,0.46
				c-1.48,0.21-2.84-0.35-4.23-0.68c-0.04-0.01-0.08-0.04-0.12-0.05c-0.46-0.18-1.15-0.23-1.34-0.56c-0.26-0.46-0.16-1.14-0.21-1.72
				C84.58,30.64,84.59,30.56,84.59,30.47z"/>
			<path d="M69.98,16.45c1.13-0.17,2.39,0.2,3.65,0.58c0.2,0.06,0.39,0.17,0.58,0.27c0.34,0.19,0.47,0.46,0.3,0.85
				c-0.33,0.77-0.64,1.54-0.94,2.31c-0.21,0.53-0.54,0.71-1.1,0.51c-0.56-0.2-1.1-0.44-1.65-0.67c-1.41-0.61-2.77-0.07-3.58,0.85
				c-0.77,0.89-1.2,1.94-1.29,3.09c-0.07,0.84-0.05,1.69,0,2.54c0.1,1.57,1.13,2.56,2.63,2.96c1.19,0.32,2.26,0.04,3.36-0.24
				c0.29-0.07,0.56-0.21,0.84-0.28c0.94-0.24,1.26,0,1.29,0.95c0.02,0.59,0.02,1.19,0,1.78c-0.03,0.69-0.29,1.11-1.05,1.37
				c-2.27,0.79-4.59,1.01-6.87,0.35c-1.98-0.57-3.43-1.95-4.33-3.84c-0.69-1.44-0.89-3.03-0.9-4.54c-0.01-1.24,0.18-2.56,0.73-3.8
				c0.45-1,0.81-2,1.61-2.8c0.8-0.8,1.79-1.25,2.78-1.71C67.21,16.44,68.49,16.41,69.98,16.45z"/>
		</g>
	</g>
</g>
</svg>
