<?xml version="1.0" encoding="utf-8"?>
<!-- Generator: Adobe Illustrator 28.0.0, SVG Export Plug-In . SVG Version: 6.00 Build 0)  -->
<svg version="1.1" id="Layer_1" xmlns="http://www.w3.org/2000/svg" xmlns:xlink="http://www.w3.org/1999/xlink" x="0px" y="0px"
	 viewBox="0 0 89.8 50.16" style="enable-background:new 0 0 89.8 50.16;" xml:space="preserve">
<g>
	<g>
		<path d="M34.57,18.2c0.22,0.14,0.47,0.1,0.71,0.15c1.21,0.24,2.34,0.67,3.32,1.44c1.12,0.87,1.81,2.01,2.1,3.4
			c0.04,0.17,0.01,0.21-0.17,0.21c-1.11,0-2.23,0-3.34,0c-0.13,0-0.21-0.03-0.28-0.16c-0.59-1.07-1.53-1.61-2.72-1.75
			c-1.33-0.15-2.48,0.24-3.42,1.19c-0.6,0.61-0.89,1.38-1.06,2.2c-0.24,1.19-0.11,2.34,0.39,3.45c0.55,1.23,1.48,1.96,2.82,2.16
			c1.24,0.18,2.34-0.13,3.29-0.93c0.27-0.22,0.47-0.53,0.69-0.8c0.05-0.07,0.09-0.16,0.1-0.25c0.06-0.35,0.01-0.41-0.34-0.41
			c-1.01,0-2.02,0-3.03,0c-0.09,0-0.18,0-0.28,0c-0.11,0-0.17-0.07-0.17-0.17c0-0.12,0-0.24,0-0.35c0-0.72,0-1.44,0-2.16
			c0-0.32,0-0.33,0.33-0.33c1.91,0,3.83,0,5.74,0c0.42,0,0.84,0,1.26,0c0.15,0,0.21,0.05,0.21,0.2c-0.01,1.02,0.04,2.05-0.03,3.07
			c-0.07,1.1-0.54,2.07-1.25,2.91c-1.11,1.29-2.52,2.06-4.18,2.38c-1.38,0.27-2.76,0.25-4.12-0.14c-2.55-0.74-4.26-2.36-5.07-4.9
			c-0.31-0.98-0.44-1.99-0.37-3.02c0.11-1.69,0.61-3.25,1.66-4.62c0.95-1.23,2.18-2.02,3.66-2.43c0.43-0.12,0.87-0.17,1.3-0.26
			c0.04-0.01,0.08-0.04,0.12-0.07C33.16,18.2,33.87,18.2,34.57,18.2z"/>
		<path d="M13.02,18.2c0.22,0.05,0.44,0.11,0.67,0.15c1.11,0.22,2.07,0.7,2.86,1.53c0.35,0.37,0.6,0.79,0.8,1.25
			c0.26,0.63,0.39,1.3,0.46,1.98c0.03,0.27,0.02,0.28-0.27,0.28c-1.01,0-2.02,0-3.03,0c-0.27,0-0.27,0-0.3-0.27
			c-0.09-0.96-0.83-1.89-2.04-1.86c-0.53,0.01-1,0.12-1.44,0.44c-0.64,0.46-0.74,1.46,0.02,1.95c0.41,0.27,0.85,0.46,1.31,0.62
			c0.75,0.26,1.51,0.49,2.26,0.78c0.54,0.2,1.06,0.44,1.57,0.7c0.71,0.37,1.28,0.91,1.66,1.62c0.38,0.71,0.47,1.49,0.4,2.29
			c-0.06,0.67-0.24,1.31-0.61,1.89c-0.67,1.05-1.65,1.68-2.82,1.98c-1.76,0.44-3.52,0.42-5.25-0.19c-1.74-0.62-2.8-1.86-3.25-3.64
			c-0.05-0.21-0.1-0.42-0.16-0.63c0-0.34,0-0.68,0-1.02c1.03,0,2.07,0.01,3.1,0.01c0.18,0,0.36,0.01,0.54,0.02
			c0.02,0.18,0.03,0.36,0.05,0.53c0,0.03,0,0.05,0,0.08c0.09,0.98,0.53,1.62,1.52,1.91c0.38,0.11,0.77,0.14,1.17,0.1
			c0.47-0.05,0.92-0.16,1.32-0.45c0.57-0.42,0.76-1.56,0-2.07c-0.26-0.17-0.54-0.33-0.83-0.43c-0.75-0.26-1.51-0.49-2.27-0.73
			c-0.81-0.26-1.61-0.54-2.34-1c-0.68-0.43-1.23-0.98-1.54-1.73c-0.22-0.54-0.27-1.11-0.26-1.69c0.02-1.48,0.66-2.61,1.87-3.43
			c0.61-0.41,1.31-0.65,2.03-0.8c0.25-0.05,0.5-0.1,0.75-0.16C11.65,18.2,12.34,18.2,13.02,18.2z"/>
		<path d="M84.53,33.62c-0.94,0-1.89,0-2.83,0.02c-0.21,0-0.26-0.11-0.32-0.27c-0.54-1.5-1.08-2.99-1.63-4.49
			c-1.15-3.17-2.3-6.33-3.45-9.5c-0.11-0.29-0.21-0.59-0.32-0.88c-0.04-0.1-0.01-0.15,0.09-0.15c0.07,0,0.13,0,0.2,0
			c2.7,0,5.4,0,8.09,0c0.05,0,0.1,0.01,0.16,0.01C84.53,23.44,84.53,28.53,84.53,33.62z"/>
		<path d="M43.07,25.99c0-2.41,0-4.83,0-7.24c0-0.46-0.05-0.4,0.39-0.4c1.26,0,2.52,0,3.78,0c0.43,0,0.35-0.02,0.48,0.31
			c1.31,3.25,2.62,6.49,3.94,9.74c0.02,0.06,0.05,0.12,0.08,0.18c0.01,0.01,0.06,0.01,0.07,0c0.03-0.04,0.05-0.09,0.07-0.14
			c1-2.48,2-4.97,3.01-7.45c0.32-0.8,0.65-1.6,0.97-2.4c0.07-0.17,0.14-0.25,0.33-0.25c1.35,0.01,2.7,0,4.05,0.01
			c0.22,0,0.22,0.01,0.22,0.22c0,0.08,0,0.16,0,0.24c0,4.79,0,9.57,0,14.36c0,0.07,0,0.13,0,0.2c-0.01,0.27-0.01,0.28-0.28,0.28
			c-1.08,0-2.15,0-3.23,0c-0.32,0-0.32,0-0.32-0.32c0-2.54,0-5.09,0-7.63c0-0.12,0-0.24,0-0.35c0-0.04-0.03-0.07-0.04-0.11
			c-0.02,0.03-0.05,0.06-0.07,0.09c-0.16,0.4-0.31,0.8-0.46,1.21c-0.86,2.25-1.72,4.49-2.57,6.74c-0.01,0.02-0.02,0.05-0.03,0.07
			c-0.12,0.3-0.12,0.3-0.45,0.3c-0.85,0-1.7,0-2.56,0c-0.19,0-0.27-0.06-0.34-0.24c-0.98-2.58-1.96-5.15-2.95-7.73
			c-0.06-0.17-0.14-0.34-0.21-0.5c-0.02,0.19-0.06,0.37-0.06,0.56c0,2.46,0,4.93,0,7.39c0,0.09,0,0.18,0,0.28
			c-0.01,0.23-0.01,0.23-0.25,0.24c-1.1,0-2.2,0-3.3,0c-0.27,0-0.27,0-0.27-0.28c0-1.51,0-3.02,0-4.52
			C43.07,27.88,43.07,26.93,43.07,25.99z"/>
		<path d="M70.37,30.61c-1.06,0-2.12,0-3.19,0c-0.38,0-0.38,0-0.51,0.38c-0.27,0.78-0.54,1.56-0.81,2.33
			c-0.11,0.31-0.11,0.31-0.44,0.31c-1.1,0-2.2,0-3.3,0c-0.05,0-0.1,0-0.16,0c-0.12,0-0.15-0.03-0.11-0.16
			c0.18-0.48,0.34-0.96,0.51-1.44c0.96-2.62,1.93-5.25,2.89-7.87c0.68-1.85,1.36-3.7,2.04-5.56c0.09-0.25,0.09-0.25,0.36-0.25
			c1.84,0,3.67,0,5.51-0.01c0.2,0,0.3,0.07,0.37,0.26c0.37,1.05,0.75,2.09,1.13,3.13c1.05,2.89,2.1,5.77,3.14,8.66
			c0.36,1.01,0.73,2.01,1.09,3.02c0.08,0.21,0.07,0.22-0.15,0.22c-1.17,0-2.33,0-3.5,0c-0.17,0-0.25-0.06-0.31-0.23
			c-0.29-0.84-0.59-1.68-0.89-2.51c-0.1-0.28-0.1-0.29-0.41-0.29C72.54,30.6,71.45,30.61,70.37,30.61z M70.31,27.39
			c0.1,0,0.21,0,0.31,0c0.63,0,1.26,0,1.88,0c0.25,0,0.27-0.03,0.19-0.28c-0.03-0.09-0.06-0.17-0.09-0.26
			c-0.56-1.59-1.12-3.17-1.69-4.75c-0.19-0.53-0.09-0.42-0.63-0.43c-0.35,0-0.35,0-0.47,0.33c-0.6,1.72-1.21,3.45-1.81,5.17
			c-0.08,0.21-0.07,0.22,0.14,0.22C68.87,27.39,69.59,27.39,70.31,27.39z"/>
		<path d="M19.86,28.49c0-1.55,0-3.09,0-4.64c0-0.08,0-0.16,0-0.24c0.01-0.22,0.01-0.22,0.25-0.23c0.03,0,0.05,0,0.08,0
			c1.05,0,2.1,0,3.14,0c0.08,0,0.16-0.01,0.23,0.01c0.05,0.01,0.11,0.07,0.12,0.12c0.02,0.09,0.01,0.18,0.01,0.27
			c0,3.14,0,6.29,0,9.43c0,0.44,0.05,0.41-0.39,0.41c-1.02,0-2.04,0-3.07,0c-0.41,0-0.37,0.05-0.37-0.39
			C19.86,31.66,19.86,30.07,19.86,28.49z"/>
		<path d="M21.79,21.67c-0.58,0-1.15,0-1.73,0c-0.15,0-0.2-0.05-0.2-0.2c0.01-0.97,0-1.94,0-2.91c0-0.21,0.01-0.21,0.22-0.21
			c1.13,0,2.25,0,3.38,0c0.21,0,0.23,0.01,0.23,0.22c0,0.96,0,1.91,0,2.87c0,0.23-0.01,0.23-0.25,0.23
			C22.89,21.67,22.34,21.67,21.79,21.67z"/>
	</g>
</g>
</svg>
