<?xml version="1.0" encoding="utf-8"?>
<!-- Generator: Adobe Illustrator 28.0.0, SVG Export Plug-In . SVG Version: 6.00 Build 0)  -->
<svg version="1.1" id="Layer_1" xmlns="http://www.w3.org/2000/svg" xmlns:xlink="http://www.w3.org/1999/xlink" x="0px" y="0px"
	 viewBox="0 0 170.74 50.16" style="enable-background:new 0 0 170.74 50.16;" xml:space="preserve">
<path id="LOGO_1_" d="M21.83,28.98l-0.71,0.78l-0.01,0.01c-1.56,1.81-3.88,2.95-6.46,2.95c-4.72,0-8.54-3.82-8.54-8.54
	c0-0.55,0.05-1.09,0.15-1.61c1.19-1.1,2.58-1.96,4.13-2.53c-1.04,1.07-1.68,2.53-1.68,4.14c0,3.28,2.66,5.94,5.94,5.94
	c1.88,0,3.56-0.87,4.65-2.24l1.46-1.61L21.83,28.98z M38.02,20.97c-0.02-0.18-0.19-0.31-0.37-0.31h-9.11
	c-0.55,0-1.08,0.07-1.59,0.21c-0.99,0.27-1.89,0.79-2.6,1.49c-0.02,0.02-0.05,0.05-0.07,0.07l1.06,2.68l0.64-0.71l0,0L26,24.37
	c0.03-0.03,0.06-0.07,0.09-0.1c0.62-0.63,1.49-1.02,2.45-1.02h4.76l-1.52,4.59c-0.47,1.34-1.75,2.29-3.24,2.29c-0.05,0-0.1,0-0.15,0
	c0.85,0.56,1.87,0.88,2.97,0.88c0.57,0,1.12-0.09,1.64-0.25c0.47-0.51,0.89-1.09,1.12-1.75l1.09-3.23c0.28-0.85,0.65-1.66,1.11-2.42
	c0.2-0.34,0.42-0.67,0.66-0.98c0.28-0.37,0.58-0.73,0.9-1.08C37.97,21.19,38.04,21.11,38.02,20.97 M22.47,20.74
	c-1.33-3-4.33-5.09-7.82-5.09c-3.51,0-6.53,2.12-7.84,5.14c2.16-1.56,4.8-2.5,7.66-2.54c0.06,0,0.12,0,0.18,0h0.03
	c1.64,0.01,3.13,0.68,4.2,1.77c0.54,0.54,0.97,1.19,1.26,1.9l2.77,6.99c0.71,1.78,2.24,3.15,4.13,3.63
	c0.33,0.08,0.68,0.14,1.03,0.17c0.15,0.01,0.3,0.02,0.46,0.02c1,0,1.95-0.24,2.78-0.68c-2.62-0.02-4.84-1.6-5.87-3.85L22.47,20.74z
	 M124.9,30.79c-0.33,0.21-0.68,0.38-1.06,0.5c-0.38,0.12-0.76,0.18-1.13,0.18c-0.63,0-1.21-0.15-1.74-0.45
	c-0.53-0.3-0.95-0.71-1.26-1.23c-0.31-0.52-0.47-1.08-0.47-1.69c0-0.61,0.15-1.17,0.46-1.68c0.31-0.51,0.72-0.92,1.25-1.21
	c0.53-0.3,1.11-0.44,1.74-0.44c0.48,0,0.95,0.09,1.4,0.27c0.46,0.18,0.86,0.43,1.22,0.75l0.69-0.87c-0.43-0.37-0.93-0.66-1.52-0.88
	c-0.58-0.21-1.18-0.32-1.79-0.32c-0.86,0-1.65,0.19-2.37,0.58c-0.71,0.39-1.28,0.92-1.69,1.59c-0.41,0.67-0.62,1.41-0.62,2.22
	c0,0.81,0.2,1.55,0.61,2.23c0.41,0.68,0.96,1.22,1.67,1.61c0.71,0.39,1.48,0.59,2.33,0.59c0.59,0,1.18-0.1,1.78-0.31
	c0.6-0.21,1.12-0.48,1.56-0.83v-3.18h-1.07V30.79z M135.33,32.45l-2.05-2.93c0.62-0.21,1.1-0.56,1.43-1.04
	c0.33-0.48,0.5-1.07,0.5-1.77c0-0.93-0.3-1.65-0.91-2.16c-0.61-0.51-1.47-0.76-2.59-0.76h-3.45v8.66h1.21v-2.7h2.24
	c0.13,0,0.29-0.01,0.49-0.02l1.75,2.72H135.33z M129.47,28.67v-3.81h2.24c0.76,0,1.33,0.16,1.74,0.48c0.4,0.32,0.6,0.79,0.6,1.4
	c0,0.64-0.2,1.12-0.6,1.44c-0.4,0.33-0.98,0.49-1.74,0.49H129.47z M143.55,24.29c-0.71-0.39-1.49-0.58-2.34-0.58
	c-0.86,0-1.64,0.19-2.34,0.58c-0.7,0.39-1.26,0.92-1.67,1.59c-0.41,0.67-0.62,1.41-0.62,2.22c0,0.81,0.21,1.55,0.62,2.23
	c0.41,0.68,0.97,1.22,1.68,1.61c0.71,0.39,1.49,0.59,2.34,0.59c0.85,0,1.63-0.2,2.34-0.59c0.71-0.39,1.27-0.93,1.68-1.61
	c0.41-0.68,0.62-1.43,0.62-2.23c0-0.81-0.21-1.55-0.62-2.22C144.82,25.21,144.26,24.68,143.55,24.29 M139.52,25.22
	c0.52-0.3,1.09-0.45,1.71-0.45c0.61,0,1.18,0.15,1.69,0.45c0.52,0.3,0.93,0.7,1.23,1.21c0.31,0.51,0.46,1.07,0.46,1.68
	c0,0.61-0.15,1.17-0.46,1.68c-0.31,0.51-0.72,0.92-1.23,1.22c-0.52,0.3-1.08,0.45-1.69,0.45c-0.61,0-1.18-0.15-1.71-0.45
	c-0.52-0.3-0.94-0.71-1.25-1.22c-0.31-0.51-0.47-1.07-0.47-1.68c0-0.61,0.16-1.17,0.47-1.68C138.58,25.92,139,25.52,139.52,25.22
	 M149.28,30.78c-0.45-0.45-0.67-1.07-0.67-1.87v-5.12h-1.21v5.12c0,1.13,0.33,2.02,0.99,2.66c0.66,0.64,1.58,0.96,2.74,0.96
	c1.16,0,2.07-0.32,2.73-0.96c0.66-0.64,0.99-1.53,0.99-2.66v-5.12h-1.21v5.12c0,0.8-0.22,1.42-0.67,1.87
	c-0.45,0.45-1.06,0.67-1.84,0.67C150.34,31.46,149.73,31.23,149.28,30.78 M163.13,24.55c-0.6-0.51-1.45-0.77-2.55-0.77h-3.4v8.66
	h1.21v-2.7h2.19c1.09,0,1.94-0.27,2.54-0.8c0.6-0.53,0.91-1.28,0.91-2.25C164.03,25.78,163.73,25.06,163.13,24.55 M162.26,28.18
	c-0.4,0.33-0.98,0.49-1.74,0.49h-2.14v-3.8l2.14-0.01c0.76,0,1.33,0.16,1.74,0.48c0.4,0.32,0.6,0.79,0.6,1.4
	C162.87,27.38,162.67,27.86,162.26,28.18 M47.2,20.63c-0.26-0.26-0.6-0.39-1.01-0.39c-0.4,0-0.73,0.13-1,0.39
	c-0.26,0.26-0.39,0.6-0.39,1.02c0,0.41,0.13,0.74,0.39,1.01c0.26,0.27,0.59,0.4,1,0.4c0.41,0,0.75-0.13,1.01-0.39
	c0.26-0.26,0.39-0.6,0.39-1.02C47.6,21.23,47.46,20.89,47.2,20.63 M44.92,32.53h2.58v-8.85h-2.58V32.53z M57.89,29.8
	c-0.38,0.2-0.77,0.35-1.17,0.47c-0.4,0.12-0.78,0.17-1.12,0.17c-0.68,0-1.3-0.16-1.87-0.48c-0.56-0.32-1.01-0.77-1.34-1.33
	c-0.33-0.56-0.49-1.19-0.49-1.87c0-0.68,0.16-1.3,0.49-1.85c0.32-0.55,0.77-0.99,1.33-1.32c0.56-0.32,1.19-0.48,1.87-0.48
	c0.57,0,1.14,0.11,1.71,0.35c0.57,0.23,1.07,0.55,1.51,0.95l1.49-1.86c-0.6-0.53-1.32-0.94-2.15-1.25
	c-0.83-0.31-1.68-0.46-2.55-0.46c-1.19,0-2.28,0.26-3.26,0.77c-0.98,0.52-1.74,1.23-2.3,2.13c-0.56,0.91-0.84,1.91-0.84,3.02
	c0,1.12,0.27,2.13,0.82,3.04c0.55,0.9,1.29,1.62,2.24,2.14c0.95,0.52,2.01,0.78,3.18,0.78c0.8,0,1.64-0.14,2.51-0.42
	c0.87-0.28,1.62-0.64,2.24-1.09v-4.48h-2.29V29.8z M70.2,32.53l-0.02-5.77c-0.01-1-0.35-1.78-1.01-2.34
	c-0.66-0.56-1.6-0.84-2.8-0.84c-0.75,0-1.43,0.08-2.06,0.25c-0.63,0.16-1.29,0.42-2.01,0.77l0.8,1.74c0.95-0.52,1.84-0.77,2.68-0.77
	c0.61,0,1.08,0.13,1.4,0.39c0.32,0.26,0.48,0.62,0.48,1.09v0.17h-2.48c-1.09,0.01-1.94,0.25-2.54,0.72c-0.6,0.47-0.9,1.12-0.9,1.95
	c0,0.82,0.28,1.49,0.84,2c0.56,0.51,1.31,0.77,2.26,0.77c0.63,0,1.18-0.1,1.66-0.3c0.48-0.2,0.87-0.48,1.17-0.86v1.04H70.2z
	 M66.95,30.45c-0.39,0.25-0.85,0.38-1.39,0.38c-0.43,0-0.78-0.1-1.03-0.3c-0.25-0.2-0.38-0.47-0.38-0.81c0-0.35,0.12-0.61,0.36-0.77
	c0.24-0.16,0.61-0.24,1.11-0.24h2.03v0.79C67.57,29.88,67.34,30.2,66.95,30.45 M86.71,24.49c-0.59-0.61-1.38-0.91-2.37-0.91
	c-0.77,0.01-1.43,0.19-1.98,0.53c-0.55,0.34-0.97,0.84-1.26,1.51c-0.22-0.65-0.6-1.15-1.12-1.51c-0.52-0.36-1.17-0.53-1.93-0.53
	c-1.41,0.02-2.42,0.57-3.05,1.63v-1.53h-2.58v8.85H75v-4.38c0-0.66,0.18-1.2,0.54-1.61c0.36-0.42,0.85-0.63,1.46-0.64
	c0.54,0,0.96,0.16,1.26,0.48c0.31,0.32,0.46,0.77,0.46,1.33v4.82h2.56v-4.38c0-0.66,0.18-1.2,0.54-1.61
	c0.36-0.42,0.84-0.63,1.46-0.64c0.54,0,0.96,0.16,1.27,0.48c0.31,0.32,0.47,0.76,0.47,1.33v4.82h2.56v-5.56
	C87.59,25.92,87.3,25.1,86.71,24.49 M92.1,20.63c-0.26-0.26-0.6-0.39-1.01-0.39c-0.4,0-0.73,0.13-1,0.39
	c-0.26,0.26-0.39,0.6-0.39,1.02c0,0.41,0.13,0.74,0.39,1.01c0.26,0.27,0.59,0.4,1,0.4c0.41,0,0.75-0.13,1.01-0.39
	c0.26-0.26,0.39-0.6,0.39-1.02C92.5,21.23,92.37,20.89,92.1,20.63 M89.82,32.53h2.58v-8.85h-2.58V32.53z M102.97,24.5
	c-0.6-0.61-1.4-0.92-2.4-0.92c-1.45,0.02-2.49,0.57-3.11,1.65v-1.55h-2.58v8.85h2.58v-4.36c0-0.66,0.18-1.2,0.55-1.62
	c0.37-0.42,0.87-0.64,1.51-0.65c0.55,0,0.98,0.16,1.3,0.49c0.32,0.32,0.48,0.77,0.48,1.33v4.82h2.58v-5.56
	C103.87,25.94,103.57,25.11,102.97,24.5 M111.97,23.68v1.2c-0.31-0.41-0.7-0.72-1.16-0.95c-0.46-0.22-0.98-0.34-1.56-0.34
	c-0.77,0-1.45,0.18-2.05,0.53c-0.6,0.35-1.06,0.84-1.39,1.47c-0.33,0.63-0.49,1.36-0.49,2.2c0,0.84,0.16,1.59,0.49,2.24
	c0.33,0.65,0.79,1.15,1.39,1.51c0.6,0.36,1.28,0.53,2.05,0.53c0.59,0,1.12-0.11,1.57-0.33c0.46-0.22,0.84-0.54,1.14-0.95v1
	c0,0.6-0.22,1.08-0.65,1.44c-0.44,0.36-1.02,0.53-1.76,0.53c-1.02,0-1.95-0.3-2.8-0.89l-0.95,1.78c0.55,0.36,1.15,0.65,1.82,0.86
	c0.66,0.21,1.36,0.31,2.1,0.31c0.95,0,1.78-0.17,2.51-0.5c0.73-0.34,1.29-0.81,1.69-1.43c0.4-0.62,0.6-1.35,0.6-2.18v-8.03H111.97z
	 M111.38,29.51c-0.39,0.42-0.9,0.63-1.52,0.63c-0.64,0-1.15-0.21-1.53-0.63c-0.38-0.42-0.58-0.97-0.59-1.65
	c0.01-0.68,0.21-1.23,0.6-1.66c0.39-0.43,0.9-0.64,1.52-0.64c0.63,0,1.13,0.21,1.52,0.64c0.39,0.43,0.59,0.98,0.59,1.66
	C111.97,28.53,111.77,29.09,111.38,29.51"/>
</svg>
