<?xml version="1.0" encoding="utf-8"?>
<!-- Generator: Adobe Illustrator 28.0.0, SVG Export Plug-In . SVG Version: 6.00 Build 0)  -->
<svg version="1.1" id="Layer_1" xmlns="http://www.w3.org/2000/svg" xmlns:xlink="http://www.w3.org/1999/xlink" x="0px" y="0px"
	 viewBox="0 0 121.48 50.16" style="enable-background:new 0 0 121.48 50.16;" xml:space="preserve">
<g>
	<path d="M64.51,32.01c0.58-0.04,1.17-0.05,1.75-0.06c0.46-0.01,0.57-0.28,0.56-0.67c-0.01-0.34,0.01-0.76-0.46-0.76
		c-1.16,0-2.32,0.05-3.48,0.08c-0.06,0.91-0.12,1.81-0.18,2.72c0,0.05,0,0.1,0,0.15c0,0,0,0,0,0c0,0.73-0.02,1.46,0,2.19
		c0.02,0.68,0.13,0.75,0.75,0.77c0.55,0.02,0.76-0.21,0.79-0.77c0.07-1.32,0.09-1.32,1.44-1.37c0.05,0,0.1,0,0.15,0
		c0.76-0.05,0.91-0.2,0.92-0.81c0.01-0.64-0.4-0.66-0.88-0.68c-0.48-0.01-0.96-0.06-1.43-0.14c-0.08-0.01-0.18-0.24-0.18-0.35
		C64.27,32.19,64.42,32.01,64.51,32.01z"/>
	<path d="M70.72,30.48c-0.68,0.02-0.89,0.17-0.9,0.84c-0.02,1.06-0.02,2.12,0,3.18c0.01,0.43,0.11,0.87,0.12,1.3
		c0.01,0.54,0.34,0.61,0.77,0.62c0.45,0.01,0.76-0.1,0.75-0.63c-0.01-0.78,0-1.55,0-2.33c0,0,0,0,0,0c0-0.73-0.02-1.46,0.01-2.18
		C71.49,30.73,71.29,30.46,70.72,30.48z"/>
	<path d="M65.31,15.56c-3.28,0.01-6.16,2.62-6.13,6.24c0.03,3.19,2.56,5.96,6.23,6.01c3.39,0.04,6.35-2.64,6.11-6.18
		C71.51,18.04,68.94,15.55,65.31,15.56z M65.4,25.22c-1.82-0.03-3.35-1.83-3.22-3.8c0.12-1.8,1.62-3.27,3.31-3.24
		c1.8,0.03,3.19,1.69,3.11,3.69C68.53,23.7,67.05,25.25,65.4,25.22z"/>
	<path d="M39.23,9.77c-0.03-0.13-0.27-0.28-0.41-0.29c-0.15,0-0.41,0.15-0.43,0.27c-0.06,0.38-0.05,0.78-0.05,1.16
		c0,5.02,0,10.04,0,15.06c0,5.02,0,10.04,0,15.06c0,0.39-0.02,0.78,0.05,1.17c0.02,0.12,0.27,0.28,0.41,0.28
		c0.15,0,0.4-0.14,0.43-0.26c0.07-0.28,0.04-0.58,0.04-0.87c0-10.24,0-20.48,0-30.71C39.28,10.35,39.31,10.05,39.23,9.77z"/>
	<path d="M78.07,34.91c-0.29-0.02-0.58-0.02-0.87,0c-0.56,0.05-0.78-0.19-0.77-0.76c0.03-1.02,0-2.04,0.01-3.06
		c0-0.55-0.34-0.62-0.77-0.61c-0.44,0.01-0.91-0.03-0.91,0.63c0.01,0.73,0,1.46,0,2.19c0,0.83,0.01,1.65,0,2.48
		c0,0.42,0.19,0.63,0.61,0.63c0.92,0,1.85-0.01,2.77,0.01c0.51,0.01,0.68-0.24,0.67-0.72C78.8,35.06,78.72,34.95,78.07,34.91z"/>
	<path d="M59.01,30.49c-0.97,0-1.94,0.01-2.91,0c-0.5,0-0.68,0.25-0.67,0.72c0.02,0.73,0,1.46,0,2.18c0,0.82,0,1.65,0,2.47
		c0,0.46,0.32,0.56,0.69,0.54c0.36-0.02,1,0.13,0.94-0.37c-0.17-1.51,0.45-1.97,1.87-1.8c0.46,0.05,0.6-0.39,0.58-0.83
		c-0.02-0.43-0.23-0.6-0.64-0.6c-0.44,0-0.88,0.03-1.31-0.04c-0.16-0.03-0.28-0.3-0.41-0.46c0.13-0.11,0.26-0.3,0.4-0.32
		c0.48-0.05,0.97-0.04,1.45-0.04c0.49,0,0.71-0.24,0.69-0.72C59.69,30.78,59.5,30.49,59.01,30.49z"/>
	<path d="M31.81,25.51c-3.66-2.07-6.58-4.98-9.19-8.23c-0.24-0.3-0.47-0.62-0.75-0.89c-0.05-0.05-0.39,0.04-0.41,0.11
		c-0.07,0.23-0.05,0.48-0.05,0.72c0,3.36,0,6.73,0,10.09c0,0.24-0.01,0.49,0.02,0.73c0.02,0.12,0.11,0.31,0.2,0.33
		c0.11,0.03,0.28-0.05,0.38-0.14c0.56-0.54,1.15-1.06,1.65-1.66c0.22-0.27,0.34-0.68,0.37-1.04c0.06-0.73,0.02-1.46,0.04-2.19
		c0-0.23,0.1-0.38,0.33-0.18c1,0.86,1.99,1.71,2.97,2.59c0.08,0.07,0.08,0.38,0,0.47c-0.33,0.36-0.69,0.69-1.07,0.99
		c-2.2,1.73-4.01,3.84-5.83,5.94c-0.31,0.36-0.63,0.72-0.95,1.08c-0.08-0.49-0.21-0.99-0.22-1.48c-0.01-6.39-0.01-12.77-0.01-19.16
		c0-0.64,0.03-1.28-0.39-1.82c-0.41-0.52-0.35-1.32-1.04-1.67c-0.29,0.55-0.57,1.1-0.87,1.64c-1.88,3.39-4.21,6.44-6.96,9.15
		c-1.77,1.75-3.7,3.32-5.85,4.59c-0.78,0.46-0.75,0.62,0.07,1.12c0.79,0.48,1.57,0.98,2.31,1.53c2.58,1.94,4.86,4.19,6.82,6.76
		c0.15,0.19,0.3,0.38,0.47,0.56c0.1,0.1,0.23,0.15,0.35,0.22c0.06-0.12,0.16-0.24,0.16-0.36c0.01-0.73,0-1.46,0-2.19
		c0-3.02,0-6.04,0-9.07c0-0.14-0.07-0.28-0.11-0.42c-0.13,0.06-0.28,0.09-0.38,0.18c-2.05,1.74-2.11,1.87-2.05,4.6
		c0,0.1,0.04,0.19,0.03,0.29c0,0.09-0.03,0.17-0.05,0.26c-0.13-0.03-0.28-0.03-0.37-0.11c-0.89-0.76-1.77-1.52-2.64-2.3
		C8.2,26.01,8.2,26,8.78,25.48c0.91-0.81,1.89-1.55,2.72-2.43c1.6-1.7,3.11-3.49,4.67-5.23c0.11-0.12,0.29-0.18,0.44-0.27
		c0.02,0.14,0.06,0.29,0.06,0.43c0,3.51,0,7.02,0,10.53c0,0,0,0,0,0c0,3.22,0.06,6.44-0.03,9.65c-0.04,1.25,0.37,2.28,0.9,3.32
		c0.08,0.16,0.25,0.27,0.37,0.4c0.13-0.13,0.29-0.23,0.38-0.38c0.55-0.98,1.03-1.99,1.62-2.94c3.06-4.89,6.88-9.06,11.88-12.05
		C32.42,26.12,32.44,25.87,31.81,25.51z"/>
	<path d="M55.79,27.64c0.19-0.03,0.39,0,0.58-0.01c1.02-0.03,1.04-0.03,1.04-1.07c0.01-2.97,0.01-5.94,0-8.91
		c-0.01-1.97,0.34-1.79-1.76-1.8c-1.14,0-1.15,0.01-1.16,1.1c-0.01,1.61,0,3.21-0.01,4.82c0,0.24-0.06,0.48-0.09,0.71
		c-0.17-0.16-0.36-0.29-0.5-0.47c-1.3-1.7-2.61-3.39-3.87-5.12c-0.57-0.78-1.22-1.22-2.21-1.05c-0.14,0.02-0.29,0-0.44,0
		c-0.81,0.03-0.84,0.03-0.85,0.82c-0.02,1.66-0.01,3.31-0.01,4.97c0,0,0,0,0,0c0,1.36-0.01,2.73,0,4.09
		c0.02,2.11-0.36,1.89,1.97,1.91c0.15,0,0.29,0,0.44-0.01c0.34-0.02,0.53-0.2,0.53-0.56c0-0.29,0.01-0.58,0.01-0.88
		c0-1.36-0.01-2.73,0.01-4.09c0-0.27,0.11-0.53,0.17-0.8c0.16,0.17,0.34,0.34,0.48,0.53c1.24,1.62,2.49,3.24,3.69,4.89
		C54.34,27.41,54.93,27.77,55.79,27.64z"/>
	<path d="M50.67,31.05c-0.18-0.41-0.48-0.56-0.92-0.57c-0.48-0.01-0.86,0.08-1.07,0.56c-0.67,1.56-1.36,3.12-2.03,4.69
		c-0.17,0.4-0.02,0.67,0.44,0.68c0.49,0.02,1.02,0.07,1.23-0.52c0.23-0.63,0.68-0.77,1.26-0.68c0.62-0.05,1.18-0.04,1.43,0.69
		c0.2,0.6,0.74,0.52,1.23,0.51c0.47-0.01,0.61-0.28,0.44-0.68C52.02,34.17,51.34,32.61,50.67,31.05z M48.96,34.02l0.71-1.7l0.63,1.7
		H48.96z"/>
	<path d="M83.24,31.2c0.02-0.6-0.29-0.73-0.81-0.72c-0.45,0.01-0.74,0.12-0.74,0.65c0.01,1.55,0.01,3.1,0,4.65
		c0,0.53,0.29,0.65,0.74,0.65c0.64,0,0.78-0.1,0.8-0.72c0.02-0.73,0.01-1.45,0-2.18C83.23,32.75,83.21,31.98,83.24,31.2z"/>
	<path d="M81.25,24.22c-0.28-0.38-0.46-0.73,0.07-1.08c1.2-0.79,1.47-2.07,1.47-3.33c-0.01-1.68-0.51-3.22-2.64-3.67
		c-0.43-0.09-0.85-0.21-1.28-0.23c-0.97-0.03-1.95-0.01-2.92-0.01c0-0.01,0-0.03,0-0.04c-1.02,0-2.05-0.01-3.07,0.01
		c-0.23,0-0.46,0.09-0.69,0.14c0.1,0.25,0.17,0.52,0.3,0.75c0.17,0.29,0.41,0.55,0.58,0.84c0.39,0.66,0.93,0.9,1.7,0.86
		c1.22-0.05,2.44-0.04,3.65,0.02c1.06,0.05,1.36,0.44,1.32,1.49c-0.04,0.87-0.4,1.3-1.34,1.42c-0.62,0.08-1.26,0.03-1.9,0.06
		c-0.52,0.02-0.61,0.18-0.32,0.61c0.79,1.17,1.61,2.32,2.4,3.49c1.54,2.29,1.54,2.29,4.24,2.09c0.61-0.05,0.71-0.21,0.37-0.69
		C82.56,26.03,81.9,25.13,81.25,24.22z"/>
	<path d="M105.32,34.92c-0.58-0.03-1.17-0.01-1.75-0.06c-0.12-0.01-0.25-0.25-0.29-0.41c-0.02-0.07,0.17-0.27,0.27-0.28
		c0.53-0.05,1.07-0.06,1.6-0.07c0.45-0.01,0.57-0.26,0.56-0.66c-0.01-0.41-0.17-0.62-0.6-0.64c-0.53-0.03-1.06-0.07-1.58-0.17
		c-0.12-0.02-0.18-0.31-0.27-0.47c0.12-0.06,0.25-0.17,0.37-0.17c0.58-0.02,1.17-0.01,1.76-0.03c0.53-0.02,0.6-0.38,0.61-0.81
		c0-0.42-0.17-0.64-0.6-0.64c-1.02,0-2.05,0.01-3.07-0.01c-0.49-0.01-0.71,0.2-0.71,0.7c0.01,0.78,0,1.56,0,2.34
		c0,0.78,0,1.56,0,2.34c0,0.35,0.18,0.54,0.54,0.55c1.07,0.01,2.15,0,3.22,0.01c0.5,0.01,0.69-0.23,0.69-0.71
		C106.07,35.09,105.97,34.95,105.32,34.92z"/>
	<path d="M112.07,32.81c-0.36-0.14-0.74-0.24-1.09-0.4c-0.09-0.04-0.18-0.25-0.15-0.33c0.05-0.11,0.23-0.25,0.33-0.23
		c0.38,0.08,0.74,0.23,1.11,0.35c0.6,0.2,0.79-0.29,0.94-0.66c0.07-0.17-0.11-0.57-0.29-0.69c-0.76-0.5-1.6-0.72-2.5-0.44
		c-0.87,0.27-1.41,1-1.41,1.84c0,0.81,0.45,1.38,1.35,1.7c0.41,0.15,0.84,0.25,1.24,0.42c0.09,0.04,0.2,0.26,0.17,0.34
		c-0.05,0.11-0.25,0.24-0.34,0.21c-0.46-0.13-0.9-0.31-1.35-0.48c-0.47-0.18-0.75-0.02-1.13,0.6c-0.29,0.47,0.12,0.56,0.37,0.77
		c0.59,0.5,1.28,0.67,1.89,0.64c1.25-0.02,1.99-0.52,2.15-1.35C113.56,33.89,113.22,33.27,112.07,32.81z"/>
	<path d="M98.32,15.85c-0.58-0.01-0.76,0.23-0.75,0.78c0.02,1.65,0.01,3.31,0.01,4.96c0,1.41-0.01,2.82,0,4.23
		c0.02,2.07-0.31,1.8,1.89,1.81c1.02,0,1.04-0.02,1.04-1.06c0.01-2.87,0.02-5.74,0-8.6C100.48,15.53,100.97,15.9,98.32,15.85z"/>
	<path d="M111.89,23.86c-0.34-0.3-0.57-0.25-0.85,0.05c-0.2,0.21-0.41,0.42-0.65,0.58c-1.08,0.72-2.75,0.71-3.73,0.01
		c-1.04-0.74-1.53-2.2-1.29-3.49c0.51-2.69,3.53-3.14,5.17-2.01c0.39,0.27,0.89,0.76,1.2,0.67c0.44-0.13,0.75-0.7,1.11-1.08
		c0.07-0.07,0.12-0.15,0.19-0.22c0.39-0.36,0.26-0.68-0.07-0.99c-1.26-1.16-2.72-1.86-4.48-1.83c-2.31,0.05-4.19,0.99-5.34,3
		c-1.19,2.08-1.17,4.32,0.01,6.41c1.42,2.53,5.37,3.9,8.46,1.98C113.49,25.76,113.54,25.29,111.89,23.86z"/>
	<path d="M97.98,30.48c-0.49,0.01-0.97,0-1.46,0c0,0,0,0,0,0c-0.58,0-1.17-0.02-1.75,0.01c-0.64,0.03-0.72,0.16-0.74,0.8
		c-0.01,0.53,0.26,0.7,0.72,0.65c0.65-0.06,0.84,0.25,0.82,0.86c-0.03,0.97,0.01,1.95-0.02,2.92c-0.02,0.63,0.35,0.71,0.84,0.7
		c0.48-0.01,0.87-0.07,0.85-0.7c-0.02-0.97,0.02-1.95-0.02-2.92c-0.02-0.62,0.18-0.92,0.82-0.85c0.63,0.07,0.71-0.32,0.69-0.82
		C98.72,30.6,98.43,30.47,97.98,30.48z"/>
	<path d="M90.11,31.16c-0.22-0.53-0.57-0.7-1.13-0.69c-0.53,0.01-0.78,0.27-0.97,0.71c-0.6,1.43-1.24,2.84-1.83,4.27
		c-0.36,0.87-0.25,0.99,0.66,0.98c0.45-0.01,0.76-0.15,0.89-0.57c0.21-0.67,0.72-0.68,1.28-0.66c0.58,0.02,1.19-0.09,1.4,0.7
		c0.14,0.54,0.62,0.54,0.98,0.52c0.85-0.01,0.91-0.11,0.6-0.84C91.36,34.1,90.72,32.64,90.11,31.16z M88.4,34.02l0.71-1.7l0.63,1.7
		H88.4z"/>
	<path d="M95.04,18.58c-1.04-1.74-2.67-2.52-4.6-2.66c-1.55-0.11-3.11-0.04-4.67-0.07C85.19,15.84,85,16.09,85,16.64
		c0.02,1.7,0.01,3.41,0.01,5.11c0,1.7,0.01,3.41-0.01,5.11c-0.01,0.55,0.2,0.79,0.77,0.78c1.61-0.04,3.22,0.05,4.82-0.1
		c0.93-0.09,1.89-0.45,2.74-0.88C95.97,25.32,96.35,20.78,95.04,18.58z M92.02,24.07c-0.31,0.38-0.86,0.64-1.35,0.79
		c-0.65,0.19-1.34,0.23-2.02,0.29c-0.46,0.04-0.73-0.18-0.73-0.68c0-0.93,0-1.85,0-2.78c0,0,0,0,0,0c0-0.83,0.03-1.66-0.01-2.48
		c-0.03-0.61,0.26-0.77,0.78-0.74c0.34,0.02,0.68-0.01,1.02,0.01c1.24,0.08,2.31,0.5,2.8,1.74C93.06,21.58,92.96,22.92,92.02,24.07z
		"/>
</g>
</svg>
