<?xml version="1.0" encoding="utf-8"?>
<!-- Generator: Adobe Illustrator 28.0.0, SVG Export Plug-In . SVG Version: 6.00 Build 0)  -->
<svg version="1.1" id="Layer_1" xmlns="http://www.w3.org/2000/svg" xmlns:xlink="http://www.w3.org/1999/xlink" x="0px" y="0px"
	 viewBox="0 0 143.32 50.16" style="enable-background:new 0 0 143.32 50.16;" xml:space="preserve">
<path id="fckJQr_00000116210068071976000320000002466223600103280550_" d="M122.81,19.23c0,0.45,0,0.9,0,1.34
	c0,0.15-0.05,0.24-0.21,0.25c-0.12,0.01-0.24,0.06-0.36,0.1c-0.41,0.14-0.41,0.14-0.21,0.5c0.52,0.96,0.84,1.98,0.79,3.09
	c-0.05,0.87-0.29,1.7-0.71,2.46c-0.47,0.86-1.17,1.5-2.01,1.98c-0.49,0.28-1.04,0.45-1.6,0.56c-0.31,0.06-0.62,0.11-0.94,0.13
	c-0.86,0.06-1.68-0.1-2.47-0.42c-0.17-0.07-0.24-0.01-0.3,0.11c-0.23,0.51,0.09,1.04,0.66,1.09c1.19,0.11,2.37,0.13,3.56,0.14
	c0.52,0.01,1.05,0.11,1.55,0.25c0.94,0.27,1.62,0.88,2.07,1.75c0.11,0.22,0.08,0.34-0.14,0.46c-0.78,0.42-1.56,0.85-2.33,1.28
	c-0.15,0.08-0.24,0.04-0.33-0.07c-0.44-0.56-1.05-0.59-1.7-0.66c-1.17-0.12-2.34-0.03-3.5-0.12c-1.67-0.13-3.02-1.42-2.9-3.21
	c0.05-0.79,0.32-1.52,0.91-2.1c0.36-0.36,0.36-0.37,0.08-0.76c-0.77-1.05-1.08-2.25-0.99-3.52c0.09-1.25,0.55-2.36,1.44-3.3
	c0.84-0.88,1.86-1.44,3.02-1.62c0.91-0.14,1.87-0.17,2.77,0.14c0.24,0.08,0.38,0.03,0.57-0.11c0.8-0.6,1.67-1.07,2.65-1.29
	c0.08-0.02,0.16-0.06,0.25-0.06c0.34-0.01,0.42-0.01,0.41,0.37C122.8,18.42,122.81,18.82,122.81,19.23
	C122.81,19.23,122.81,19.23,122.81,19.23z M117.21,26.59c1.36,0.01,2.41-0.98,2.4-2.33c-0.01-0.63-0.24-1.22-0.72-1.71
	c-0.47-0.48-1.07-0.72-1.65-0.67c-1.48,0.12-2.2,0.91-2.33,2.36c-0.05,0.59,0.19,1.23,0.65,1.66
	C116.01,26.33,116.55,26.63,117.21,26.59z M21.07,19.26c0,0.41,0,0.81,0,1.22c0,0.18-0.02,0.29-0.25,0.36
	c-0.67,0.22-0.68,0.25-0.35,0.86c0.46,0.84,0.6,1.73,0.6,2.68c0.01,1.1-0.27,2.1-0.92,2.97c-0.86,1.16-1.99,1.91-3.44,2.19
	c-1.12,0.22-2.18,0.09-3.23-0.26c-0.29-0.1-0.42-0.02-0.47,0.26c-0.1,0.46,0.24,0.85,0.73,0.91c1.23,0.15,2.46,0.09,3.69,0.13
	c0.86,0.03,1.7,0.23,2.44,0.73c0.54,0.37,0.83,0.89,1.13,1.42c0.09,0.16-0.02,0.21-0.14,0.28c-0.5,0.27-1,0.55-1.5,0.82
	c-0.26,0.14-0.52,0.28-0.77,0.44c-0.17,0.11-0.3,0.12-0.44-0.04c-0.42-0.49-0.97-0.58-1.59-0.63c-1.21-0.11-2.43-0.02-3.63-0.13
	c-1.24-0.11-2.37-0.64-2.76-2.13c-0.27-1-0.21-2.02,0.52-2.88c0.08-0.1,0.13-0.22,0.21-0.31c0.12-0.13,0.33-0.24,0.36-0.38
	c0.02-0.11-0.19-0.25-0.29-0.4c-0.6-0.9-0.9-1.88-0.92-2.98c-0.01-0.98,0.17-1.87,0.62-2.74c0.57-1.12,1.48-1.83,2.58-2.34
	c1.04-0.48,2.15-0.42,3.25-0.39c0.25,0.01,0.5,0.1,0.73,0.19c0.28,0.11,0.47,0.02,0.68-0.18c0.76-0.72,1.73-1.03,2.71-1.29
	c0.38-0.1,0.45-0.01,0.44,0.39C21.05,18.45,21.07,18.86,21.07,19.26z M17.88,24.31c-0.01-1.69-1.12-2.44-2.34-2.42
	c-1.3,0.03-2.25,0.83-2.28,2.35c-0.02,1.35,0.96,2.29,2.27,2.37C16.77,26.68,18.01,25.45,17.88,24.31z M35.16,26.04c0,1,0,2,0,3.01
	c0,0.18-0.01,0.35,0.25,0.34c0.85,0,1.71,0,2.56,0c0.15,0,0.24-0.05,0.24-0.22c0-0.15,0-0.3,0-0.45c0-1.64,0.02-3.28-0.01-4.92
	c-0.02-0.83,0.39-1.35,1.08-1.71c1.27-0.66,2.64,0.43,2.54,1.57c-0.04,0.53-0.01,1.07-0.01,1.6c0,1.26,0,2.52,0,3.77
	c0,0.35,0.01,0.36,0.36,0.36c0.7,0.01,1.41,0.01,2.11,0c0.45,0,0.46-0.01,0.46-0.45c0-1.68,0-3.37,0-5.05c0-0.89,0.49-1.6,1.34-1.88
	c1.1-0.37,2.35,0.36,2.28,1.59c-0.04,0.68-0.01,1.36-0.01,2.05c0,1.13,0,2.26,0,3.39c0,0.35,0.01,0.36,0.36,0.36
	c0.81,0.01,1.62,0.01,2.43,0c0.37,0,0.39-0.01,0.38-0.4c-0.06-2.34,0.14-4.68-0.12-7.01c-0.13-1.17-0.71-2.06-1.73-2.65
	c-0.54-0.31-1.13-0.47-1.76-0.41c-0.42,0.04-0.85,0.01-1.26,0.09c-0.83,0.17-1.54,0.58-2.11,1.21c-0.14,0.15-0.2,0.25-0.39-0.01
	c-0.41-0.56-0.98-0.92-1.64-1.14c-0.54-0.18-1.09-0.13-1.64-0.15c-0.87-0.02-1.6,0.3-2.26,0.83c-0.11,0.09-0.23,0.18-0.34,0.26
	c-0.02-0.15-0.04-0.29-0.05-0.44c0-0.04,0-0.09,0-0.13c0.01-0.18-0.05-0.28-0.25-0.28c-0.85,0-1.71,0-2.56,0
	c-0.15,0-0.24,0.06-0.24,0.22c0,0.15,0,0.3,0,0.45c0,1.47,0,2.94,0,4.41C35.16,24.85,35.16,25.45,35.16,26.04z M33.35,24.27
	c0,1.56,0,3.11,0,4.67c0,0.45-0.01,0.45-0.45,0.46c-0.75,0-1.49,0-2.24,0c-0.22,0-0.37-0.02-0.36-0.31
	c0.01-0.22-0.04-0.44-0.07-0.67c-0.16,0.14-0.31,0.29-0.49,0.41c-1,0.67-2.06,0.91-3.29,0.73c-1.91-0.27-3.67-2.23-3.98-4.17
	c-0.21-1.33-0.07-2.57,0.48-3.76c0.53-1.16,1.42-1.99,2.63-2.44c1.11-0.42,2.24-0.41,3.34,0.02c0.42,0.17,0.79,0.48,1.18,0.74
	c0.19,0.13,0.2,0.03,0.21-0.12c0.05-0.65,0.05-0.65,0.71-0.65c0.66,0,1.32,0,1.98,0c0.34,0,0.35,0.01,0.35,0.36
	c0,1.49,0,2.99,0,4.48C33.35,24.1,33.35,24.18,33.35,24.27z M27.81,26.59c1.15,0.13,2.36-0.97,2.36-2.35c0-1.32-0.92-2.32-2.3-2.34
	c-1.29-0.02-2.24,0.79-2.34,2.28C25.44,25.49,26.7,26.73,27.81,26.59z M100.04,25.4c0,1.21,0,2.43,0,3.64
	c0,0.17-0.02,0.35,0.24,0.35c0.98,0,1.96,0,2.94,0c0.19,0,0.26-0.09,0.25-0.27c-0.01-0.15,0-0.3,0-0.45c0-1.66,0.03-3.33-0.01-4.99
	c-0.03-0.94,0.77-1.9,2.03-1.71c0.73,0.11,1.32,0.81,1.33,1.55c0,0.55,0,1.11,0,1.66c0,1.28,0,2.56,0,3.84
	c0,0.35,0.01,0.36,0.35,0.37c0.55,0.01,1.11,0,1.66,0c0.38,0,0.77,0,1.15,0c0.18,0,0.28-0.06,0.27-0.26c-0.01-0.15,0-0.3,0-0.45
	c0-1.96,0.01-3.92-0.01-5.88c0-0.4-0.04-0.81-0.14-1.19c-0.24-0.88-0.68-1.64-1.5-2.11c-0.63-0.36-1.28-0.65-2.03-0.6
	c-0.5,0.04-1-0.06-1.52,0.1c-0.66,0.2-1.26,0.47-1.78,0.93c-0.06,0.05-0.16,0.1-0.22,0.08c-0.05-0.02-0.08-0.13-0.1-0.21
	c-0.02-0.08,0-0.17-0.01-0.25c-0.02-0.38-0.02-0.39-0.39-0.4c-0.68-0.01-1.36,0-2.05,0c-0.5,0-0.5-0.02-0.5,0.48
	c0,1.53,0,3.07,0,4.6C100.04,24.63,100.04,25.02,100.04,25.4z M131.1,25.17c-1.07,0-2.13,0-3.2,0c-0.15,0-0.3-0.01-0.45,0.01
	c-0.13,0.01-0.18,0.09-0.13,0.22c0.39,0.99,1.19,1.59,2.32,1.7c0.98,0.1,1.82-0.26,2.6-0.82c0.39-0.28,0.39-0.27,0.74,0.05
	c0.44,0.4,0.88,0.8,1.32,1.19c0.13,0.12,0.1,0.19-0.01,0.3c-0.86,0.94-1.95,1.45-3.19,1.69c-0.37,0.07-0.75,0.11-1.13,0.13
	c-0.97,0.06-1.89-0.17-2.76-0.56c-0.99-0.44-1.77-1.17-2.33-2.09c-0.55-0.9-0.83-1.9-0.78-2.96c0.07-1.27,0.47-2.41,1.36-3.39
	c0.85-0.94,1.9-1.53,3.11-1.7c2.01-0.28,3.86,0.18,5.21,1.81c0.75,0.91,1.21,1.98,1.18,3.2c-0.01,0.23,0,0.47,0,0.7
	c0,0.5,0.02,0.5-0.48,0.5C133.36,25.17,132.23,25.17,131.1,25.17z M129.59,23.52C129.59,23.52,129.59,23.52,129.59,23.52
	c0.53,0,1.06,0.01,1.59,0c0.36-0.01,0.38-0.04,0.24-0.35c-0.4-0.88-0.98-1.23-2.01-1.2c-0.66,0.02-1.49,0.61-1.7,1.22
	c-0.07,0.21,0,0.32,0.23,0.33C128.48,23.53,129.03,23.52,129.59,23.52z M59.7,25.17c-1.07,0-2.13,0-3.2,0c-0.15,0-0.3,0-0.45,0.01
	c-0.13,0.01-0.2,0.08-0.14,0.21c0.34,0.85,1.2,1.63,2.26,1.71c0.9,0.07,1.72-0.11,2.44-0.69c0.11-0.09,0.25-0.16,0.36-0.25
	c0.14-0.11,0.27-0.13,0.4-0.01c0.5,0.46,1,0.92,1.51,1.37c0.13,0.12,0.1,0.19,0,0.31c-0.87,0.94-1.96,1.45-3.19,1.68
	c-0.37,0.07-0.75,0.11-1.13,0.13c-0.97,0.06-1.9-0.15-2.76-0.56c-1.28-0.62-2.24-1.58-2.74-2.95c-0.23-0.64-0.4-1.3-0.37-1.97
	c0.11-2.49,1.59-4.52,4.14-5.11c1.64-0.37,3.19-0.15,4.59,0.85c1.02,0.73,1.67,1.71,1.99,2.92c0.18,0.67,0.12,1.35,0.13,2.03
	c0,0.25-0.09,0.33-0.34,0.33c-1.07-0.01-2.13,0-3.2,0C59.92,25.17,59.81,25.17,59.7,25.17z M58.19,23.52c0.51,0,1.02-0.01,1.54,0
	c0.37,0.01,0.43-0.08,0.27-0.39c-0.39-0.77-0.96-1.19-1.86-1.18c-0.85,0.01-1.38,0.45-1.78,1.13c-0.19,0.32-0.12,0.42,0.23,0.43
	C57.13,23.53,57.66,23.52,58.19,23.52z M75.6,24.27c-0.03-1.17,0.28-2.23,0.95-3.13c0.77-1.04,1.77-1.83,3.08-2.09
	c1.74-0.35,3.4-0.21,4.89,0.88c0.82,0.6,1.44,1.37,1.8,2.32c0.25,0.65,0.41,1.34,0.38,2.03c-0.06,1.41-0.5,2.69-1.5,3.72
	c-0.77,0.8-1.74,1.25-2.81,1.5c-0.37,0.09-0.75,0.11-1.13,0.13c-0.95,0.05-1.85-0.17-2.7-0.57c-0.91-0.43-1.68-1.07-2.2-1.96
	C75.87,26.24,75.55,25.28,75.6,24.27z M83.41,24.27c0.09-1.38-0.86-2.36-2.24-2.38c-1.36-0.01-2.32,0.91-2.36,2.32
	c-0.04,1.35,0.84,2.31,2.33,2.39C82.25,26.67,83.56,25.6,83.41,24.27z M98.12,19.86c0-0.15,0-0.3,0-0.45c0-0.15-0.07-0.24-0.23-0.24
	c-0.96,0-1.92,0-2.88,0c-0.17,0-0.22,0.1-0.22,0.24c0,0.15,0,0.3,0,0.45c0,1.58,0.01,3.15-0.01,4.73c0,0.31-0.05,0.64-0.17,0.92
	c-0.34,0.86-1.65,1.58-2.67,0.61c-0.42-0.4-0.64-0.86-0.63-1.46c0.02-1.7,0.01-3.41,0.01-5.11c0-0.37-0.01-0.38-0.34-0.38
	c-0.92-0.01-1.83-0.01-2.75,0c-0.34,0-0.35,0.01-0.35,0.37c0,1.32-0.01,2.64,0,3.96c0.01,1-0.08,1.99,0.12,2.98
	c0.2,0.98,0.59,1.83,1.46,2.42c0.5,0.34,1.03,0.53,1.62,0.65c1.42,0.27,2.67-0.04,3.78-0.95c0.08-0.07,0.17-0.12,0.25-0.18
	c0.02,0.1,0.04,0.2,0.05,0.31c0.01,0.11,0,0.21,0,0.32c0.01,0.33,0.01,0.34,0.37,0.34c0.7,0.01,1.41,0.01,2.11,0
	c0.45,0,0.45-0.01,0.45-0.46c0-1.56,0-3.11,0-4.67C98.12,22.8,98.12,21.33,98.12,19.86z M71.38,28.73c0,0.74-0.09,0.66,0.63,0.66
	c0.55,0,1.11,0,1.66,0c0.72,0,0.63,0.07,0.63-0.66c0-3.78,0-7.55,0-11.33c0-0.13-0.01-0.26,0-0.38c0.01-0.18-0.05-0.28-0.25-0.28
	c-0.81,0-1.62,0-2.43,0c-0.2,0-0.26,0.1-0.25,0.28c0.01,0.15,0,0.3,0,0.45c0,1.86,0,3.71,0,5.57
	C71.38,24.93,71.37,26.83,71.38,28.73z"/>
</svg>
