<?xml version="1.0" encoding="utf-8"?>
<!-- Generator: Adobe Illustrator 28.0.0, SVG Export Plug-In . SVG Version: 6.00 Build 0)  -->
<svg version="1.1" id="Layer_1" xmlns="http://www.w3.org/2000/svg" xmlns:xlink="http://www.w3.org/1999/xlink" x="0px" y="0px"
	 viewBox="0 0 3070.49 1517.45" style="enable-background:new 0 0 3070.49 1517.45;" xml:space="preserve">
<style type="text/css">
	.st0{fill:#FFFFFF;}
</style>
<g>
	<g>
		<g>
			<path id="SVGID_1_" class="st0" d="M373.35,1468.42H40.75v-959.7h332.6L373.35,1468.42L373.35,1468.42z M340.35,350.72
				c-35.4,34.1-79.7,51.2-133.4,51.2c-53.5,0-98-16.9-133.4-51.2c-35.4-34.1-53.1-75.8-53.1-125.2s17.7-91.1,53.1-125.2
				s79.7-51.2,133.4-51.2c53.5,0,98,16.9,133.4,51.2c35.4,34.1,53.1,75.8,53.1,125.2C393.45,274.82,375.65,316.42,340.35,350.72z
				 M1863.05,1208.92c-5,7.8-13.7,17.7-25.9,30.1c-12.1,12.3-37.2,34.4-75.4,66c-38.3,31.5-79.3,59.5-123.3,83.6
				c-43.9,24.1-100.4,46-169.1,65.4c-68.9,19.4-139.9,29.1-213.1,29.1c-212.8,0.1-393.2-71.1-541.4-213.5
				c-148.1-142.4-222.3-312.7-222.3-510.9s74.2-368.5,222.2-510.9s328.6-213.6,541.4-213.6c73.3,0,143.1,9.6,209.2,28.7
				c66.3,19.1,120.9,42.1,163.9,68.9c43.1,26.8,80.7,53.5,112.7,80.3c32.3,26.8,55.2,49.6,69.3,68.9l22,27.7l-225.6,235.1
				c-3.9-5-8.9-11.6-15.3-19.5s-21.1-22-43.9-42.1c-22.9-20.1-46.9-37.8-71.5-53.5c-25-15.7-57.5-29.7-98-42.1
				c-40.5-12.3-81.5-18.7-122.8-18.7c-112.2,0-205.6,37-280.1,111.3s-111.7,167.2-111.7,279.3s37.3,205.6,111.7,280.1
				c74.6,74.5,167.9,111.7,280.1,111.7c47.1,0,90.1-7.2,129.1-21.5s66.3-29.5,82.2-45.3l22.9-21.1v-147.2h-215v-234.9h587.7
				L1863.05,1208.92L1863.05,1208.92z M2904.85,1353.52c-100,86.7-232.9,129.9-398.6,129.9c-67.5,0-132.7-8.2-195.5-24.4
				c-62.7-16.2-114.4-35.9-154.9-58.8c-40.5-23-76.3-45.9-107.4-68.9c-31.2-23-54.2-42.7-68.9-59.2l-21.1-23.8l215-224.6
				c2.5,3.9,7.2,8.9,13.9,15.3c6.8,6.4,19.7,18.2,39.2,35.4c19.5,17.2,39.9,32.3,61.6,45.3c21.6,13,48.8,24.7,81.2,34.9
				c32.4,10.3,65,15.3,97.5,15.3c52.3,0,94.8-14.3,127.6-43c32.9-28.7,49.2-63.1,49.2-103.3c0.3-25-11.5-46.6-35.1-65
				s-54.1-33.7-91.2-45.9c-37.3-12.2-78.7-25.1-124.4-38.8c-45.6-13.7-90.7-31.1-135.7-52.1c-44.9-21.1-86.1-46.2-123.4-75.4
				c-37.2-29.4-67.7-68.9-91.2-118.5c-23.6-49.6-35.4-107-35.4-171.9c0-112.2,48.7-210.5,145.7-294.9s221.6-126.6,373.4-126.6
				c62.5,0,121.5,6.8,176.8,20.5c55.5,13.7,100.8,30.1,136.3,49.2s66.4,38,93.2,56.8c26.8,18.9,45.2,35.5,55.5,50.2l18.2,19.1
				l-216,225.6c-6.4-7.8-15.8-17.3-28.1-29.1s-38.3-27.9-77.5-48.2c-39.2-20.4-78.9-30.5-119-30.5c-42.1,0-77.1,11.8-105.2,35.4
				c-28,23.6-42.1,50.9-42.1,82.2c0,25,11.8,46.3,35.4,64.5c23.6,18.2,54.1,33.4,91.2,45.9c37.3,12.3,78.3,25.5,123.4,39.2
				c44.9,13.7,90.1,31.1,135.7,52.1c45.6,21.1,87.1,46.2,124.4,75.4c37.2,29.3,67.7,68.9,91.2,118.5c23.6,49.6,35.4,107,35.4,172.1
				C3054.85,1160.12,3004.75,1266.82,2904.85,1353.52z"/>
		</g>
	</g>
</g>
</svg>
